<svg id="svg" version="1.1" xmlns="http://www.w3.org/2000/svg" xmlns:xlink="http://www.w3.org/1999/xlink" width="400" height="402.7826086956522" viewBox="0, 0, 400,402.7826086956522"><g id="svgg"><path id="path0" d="M132.000 236.344 C 132.000 236.534,131.056 236.800,129.902 236.937 C 128.749 237.074,127.744 237.369,127.669 237.593 C 127.594 237.817,127.374 238.000,127.180 238.000 C 126.494 238.000,123.600 240.977,123.600 241.684 C 123.600 242.078,123.420 242.400,123.200 242.400 C 122.980 242.400,122.800 243.120,122.800 244.000 C 122.800 244.880,122.620 245.600,122.400 245.600 C 122.180 245.600,122.000 246.230,122.000 247.000 C 122.000 247.770,122.180 248.400,122.400 248.400 C 122.620 248.400,122.800 249.210,122.800 250.200 C 122.800 251.190,122.980 252.000,123.200 252.000 C 123.420 252.000,123.600 252.270,123.600 252.600 C 123.600 253.529,127.910 257.517,129.226 257.806 C 129.872 257.948,130.400 258.229,130.400 258.432 C 130.400 258.634,130.760 258.800,131.200 258.800 C 131.640 258.800,132.000 258.980,132.000 259.200 C 132.000 259.420,132.270 259.600,132.600 259.600 C 132.930 259.600,133.200 259.757,133.200 259.950 C 133.200 260.143,133.757 260.411,134.437 260.547 C 135.720 260.804,138.000 262.891,138.000 263.809 C 138.000 264.097,138.225 264.425,138.500 264.536 C 138.824 264.668,138.859 264.855,138.600 265.070 C 138.380 265.251,138.002 265.760,137.760 266.200 C 137.517 266.640,136.842 267.057,136.260 267.127 C 135.677 267.196,135.200 267.421,135.200 267.627 C 135.200 268.130,132.112 268.106,131.800 267.600 C 131.664 267.380,130.843 267.200,129.976 267.200 C 129.109 267.200,128.400 267.031,128.400 266.825 C 128.400 266.618,127.590 266.328,126.600 266.179 C 125.610 266.031,124.800 265.750,124.800 265.555 C 124.800 265.360,124.170 265.200,123.400 265.200 L 122.000 265.200 122.000 269.357 C 122.000 273.746,122.111 274.000,124.033 274.000 C 124.455 274.000,124.800 274.180,124.800 274.400 C 124.800 274.620,125.430 274.800,126.200 274.800 C 126.970 274.800,127.600 274.980,127.600 275.200 C 127.600 275.446,129.600 275.600,132.800 275.600 C 136.000 275.600,138.000 275.446,138.000 275.200 C 138.000 274.980,138.630 274.800,139.400 274.800 C 140.170 274.800,140.800 274.643,140.800 274.450 C 140.800 274.257,141.357 273.989,142.037 273.853 C 143.283 273.603,145.600 271.518,145.600 270.646 C 145.600 270.388,145.960 269.917,146.400 269.600 C 146.902 269.238,147.200 268.565,147.200 267.792 C 147.200 267.114,147.399 266.361,147.643 266.117 C 148.286 265.474,147.485 259.600,146.755 259.600 C 146.560 259.600,146.400 259.240,146.400 258.800 C 146.400 258.360,146.220 258.000,146.000 258.000 C 145.780 258.000,145.600 257.758,145.600 257.462 C 145.600 256.749,144.302 255.600,143.495 255.600 C 143.143 255.600,142.740 255.240,142.600 254.800 C 142.460 254.360,141.998 254.000,141.573 254.000 C 141.148 254.000,140.800 253.828,140.800 253.618 C 140.800 253.408,140.170 253.118,139.400 252.974 C 138.630 252.829,138.000 252.551,138.000 252.355 C 138.000 252.160,137.730 252.000,137.400 252.000 C 137.070 252.000,136.800 251.820,136.800 251.600 C 136.800 251.380,136.440 251.200,136.000 251.200 C 135.560 251.200,135.200 251.020,135.200 250.800 C 135.200 250.580,134.958 250.400,134.661 250.400 C 131.997 250.400,130.713 245.146,133.241 244.591 C 133.873 244.452,134.494 244.172,134.619 243.969 C 134.909 243.501,136.800 243.482,136.800 243.948 C 136.800 244.140,137.880 244.419,139.200 244.568 C 140.520 244.718,141.600 245.011,141.600 245.220 C 141.600 245.429,142.391 245.600,143.357 245.600 C 145.167 245.600,145.600 245.208,145.600 243.567 C 145.600 243.145,145.780 242.800,146.000 242.800 C 146.220 242.800,146.400 242.530,146.400 242.200 C 146.400 241.870,146.580 241.600,146.800 241.600 C 147.383 241.600,147.290 239.225,146.685 238.671 C 145.567 237.649,144.288 237.176,141.995 236.936 C 140.678 236.799,139.600 236.532,139.600 236.343 C 139.600 236.154,137.890 236.000,135.800 236.000 C 133.710 236.000,132.000 236.155,132.000 236.344 M314.000 236.348 C 314.000 236.540,312.920 236.819,311.600 236.968 C 310.280 237.118,309.200 237.411,309.200 237.620 C 309.200 237.829,308.930 238.000,308.600 238.000 C 308.270 238.000,308.000 238.180,308.000 238.400 C 308.000 238.620,307.716 238.800,307.369 238.800 C 306.673 238.800,303.600 241.722,303.600 242.384 C 303.600 242.613,303.455 242.800,303.277 242.800 C 302.873 242.800,301.600 245.636,301.600 246.534 C 301.600 246.900,301.420 247.200,301.200 247.200 C 300.980 247.200,300.800 247.639,300.800 248.176 C 300.800 248.713,300.620 249.264,300.400 249.400 C 300.161 249.547,300.000 252.130,300.000 255.800 C 300.000 259.470,300.161 262.053,300.400 262.200 C 300.620 262.336,300.800 262.887,300.800 263.424 C 300.800 263.961,300.980 264.400,301.200 264.400 C 301.420 264.400,301.600 264.850,301.600 265.400 C 301.600 265.950,301.757 266.400,301.950 266.400 C 302.143 266.400,302.400 266.899,302.522 267.508 C 302.778 268.791,306.457 272.800,307.377 272.800 C 307.720 272.800,308.000 272.972,308.000 273.182 C 308.000 273.392,308.630 273.682,309.400 273.826 C 310.170 273.971,310.800 274.249,310.800 274.445 C 310.800 274.640,311.329 274.800,311.976 274.800 C 312.623 274.800,313.264 274.980,313.400 275.200 C 313.543 275.432,315.730 275.600,318.600 275.600 C 321.470 275.600,323.657 275.432,323.800 275.200 C 323.936 274.980,324.566 274.800,325.200 274.800 C 325.834 274.800,326.455 274.634,326.581 274.431 C 326.706 274.228,327.312 273.951,327.927 273.816 C 328.542 273.681,329.299 273.217,329.611 272.785 C 329.922 272.353,330.407 272.000,330.688 272.000 C 331.347 272.000,332.800 270.552,332.800 269.896 C 332.800 269.619,333.144 269.178,333.564 268.915 C 333.984 268.653,334.449 267.890,334.596 267.219 C 334.743 266.549,335.029 266.000,335.232 266.000 C 335.434 266.000,335.600 265.460,335.600 264.800 C 335.600 264.140,335.780 263.600,336.000 263.600 C 336.220 263.600,336.400 262.700,336.400 261.600 C 336.400 260.500,336.580 259.600,336.800 259.600 C 337.039 259.600,337.200 258.067,337.200 255.800 C 337.200 253.533,337.039 252.000,336.800 252.000 C 336.580 252.000,336.400 251.111,336.400 250.024 C 336.400 248.937,336.220 247.936,336.000 247.800 C 335.780 247.664,335.600 247.113,335.600 246.576 C 335.600 246.039,335.440 245.600,335.243 245.600 C 335.047 245.600,334.764 245.105,334.614 244.500 C 334.464 243.895,333.769 242.824,333.071 242.120 C 332.372 241.416,331.595 240.631,331.345 240.375 C 329.002 237.987,327.615 237.212,325.169 236.922 C 324.086 236.794,323.200 236.534,323.200 236.344 C 323.200 236.155,321.130 236.000,318.600 236.000 C 316.070 236.000,314.000 236.157,314.000 236.348 M64.400 255.800 L 64.400 274.800 68.800 274.800 L 73.200 274.800 73.200 255.800 L 73.200 236.800 68.800 236.800 L 64.400 236.800 64.400 255.800 M81.600 255.800 L 81.600 274.800 85.800 274.800 L 90.000 274.800 90.000 262.400 C 90.000 254.400,90.142 250.000,90.400 250.000 C 90.620 250.000,90.800 250.270,90.800 250.600 C 90.800 250.930,90.958 251.200,91.150 251.200 C 91.343 251.200,91.600 251.695,91.723 252.300 C 91.845 252.905,92.317 253.797,92.773 254.283 C 93.228 254.769,93.600 255.354,93.600 255.583 C 93.600 255.812,93.758 256.000,93.950 256.000 C 94.142 256.000,94.400 256.495,94.523 257.100 C 94.645 257.705,95.117 258.597,95.573 259.083 C 96.028 259.569,96.400 260.154,96.400 260.383 C 96.400 260.612,96.580 260.800,96.800 260.800 C 97.020 260.800,97.200 261.147,97.200 261.571 C 97.200 261.996,97.470 262.613,97.800 262.943 C 98.130 263.273,98.400 263.736,98.400 263.971 C 98.400 264.207,98.580 264.400,98.800 264.400 C 99.020 264.400,99.200 264.760,99.200 265.200 C 99.200 265.640,99.360 266.000,99.557 266.000 C 99.753 266.000,100.026 266.450,100.164 267.000 C 100.302 267.550,100.592 268.000,100.808 268.000 C 101.023 268.000,101.200 268.270,101.200 268.600 C 101.200 268.930,101.380 269.200,101.600 269.200 C 101.820 269.200,102.000 269.560,102.000 270.000 C 102.000 270.440,102.160 270.800,102.357 270.800 C 102.553 270.800,102.826 271.250,102.964 271.800 C 103.102 272.350,103.392 272.800,103.608 272.800 C 103.823 272.800,104.000 272.993,104.000 273.229 C 104.000 274.537,105.135 274.800,110.771 274.800 L 116.400 274.800 116.400 255.800 L 116.400 236.800 112.200 236.800 L 108.000 236.800 107.991 249.700 C 107.982 262.117,107.956 262.548,107.303 261.200 C 106.930 260.430,106.484 259.740,106.312 259.667 C 106.141 259.593,106.000 259.355,106.000 259.138 C 106.000 258.921,105.730 258.473,105.400 258.143 C 105.070 257.813,104.800 257.196,104.800 256.771 C 104.800 256.347,104.620 256.000,104.400 256.000 C 104.180 256.000,104.000 255.730,104.000 255.400 C 104.000 255.070,103.823 254.800,103.608 254.800 C 103.392 254.800,103.102 254.350,102.964 253.800 C 102.826 253.250,102.553 252.800,102.357 252.800 C 102.160 252.800,102.000 252.440,102.000 252.000 C 102.000 251.560,101.820 251.200,101.600 251.200 C 101.380 251.200,101.200 250.930,101.200 250.600 C 101.200 250.270,101.055 250.000,100.877 250.000 C 100.699 250.000,100.219 249.235,99.810 248.300 C 99.401 247.365,98.737 246.309,98.333 245.953 C 97.930 245.597,97.600 245.174,97.600 245.014 C 97.600 244.379,96.202 241.765,95.547 241.176 C 95.166 240.833,94.736 240.086,94.593 239.516 C 93.974 237.046,93.301 236.800,87.184 236.800 L 81.600 236.800 81.600 255.800 M150.000 240.600 L 150.000 244.400 154.800 244.400 L 159.600 244.400 159.600 259.600 L 159.600 274.800 164.200 274.800 L 168.800 274.800 168.800 259.600 L 168.800 244.400 174.000 244.400 L 179.200 244.400 179.200 240.600 L 179.200 236.800 164.600 236.800 L 150.000 236.800 150.000 240.600 M184.000 255.800 L 184.000 274.800 188.600 274.800 L 193.200 274.800 193.200 255.800 L 193.200 236.800 188.600 236.800 L 184.000 236.800 184.000 255.800 M197.200 240.600 L 197.200 244.400 202.400 244.400 L 207.600 244.400 207.600 259.600 L 207.600 274.800 212.200 274.800 L 216.800 274.800 216.800 259.600 L 216.800 244.400 222.000 244.400 L 227.200 244.400 227.200 240.600 L 227.200 236.800 212.200 236.800 L 197.200 236.800 197.200 240.600 M231.200 251.000 C 231.200 260.200,231.341 265.200,231.600 265.200 C 231.820 265.200,232.000 265.830,232.000 266.600 C 232.000 267.370,232.180 268.000,232.400 268.000 C 232.620 268.000,232.800 268.227,232.800 268.504 C 232.800 268.781,233.250 269.493,233.800 270.087 C 234.350 270.680,234.800 271.353,234.800 271.583 C 234.800 271.812,235.004 272.000,235.253 272.000 C 235.502 272.000,235.997 272.336,236.353 272.746 C 236.709 273.157,237.586 273.621,238.300 273.778 C 239.015 273.935,239.600 274.229,239.600 274.432 C 239.600 274.634,240.039 274.800,240.576 274.800 C 241.113 274.800,241.664 274.980,241.800 275.200 C 241.943 275.432,244.137 275.600,247.024 275.600 C 250.075 275.600,252.000 275.445,252.000 275.200 C 252.000 274.980,252.630 274.800,253.400 274.800 C 254.170 274.800,254.800 274.643,254.800 274.450 C 254.800 274.257,255.339 273.992,255.998 273.860 C 257.197 273.621,261.200 270.057,261.200 269.229 C 261.200 268.993,261.380 268.800,261.600 268.800 C 261.820 268.800,262.000 268.455,262.000 268.033 C 262.000 267.612,262.225 267.192,262.500 267.100 C 262.885 266.972,263.028 263.477,263.122 251.867 L 263.245 236.800 258.822 236.800 L 254.400 236.800 254.400 249.600 C 254.400 257.867,254.258 262.400,254.000 262.400 C 253.780 262.400,253.600 262.850,253.600 263.400 C 253.600 263.950,253.420 264.400,253.200 264.400 C 252.980 264.400,252.800 264.757,252.800 265.192 C 252.800 265.704,252.446 266.074,251.800 266.236 C 251.250 266.374,250.800 266.647,250.800 266.843 C 250.800 267.040,250.530 267.200,250.200 267.200 C 249.870 267.200,249.600 267.380,249.600 267.600 C 249.600 267.820,248.610 268.000,247.400 268.000 C 246.190 268.000,245.200 267.820,245.200 267.600 C 245.200 267.380,244.840 267.200,244.400 267.200 C 243.960 267.200,243.600 267.040,243.600 266.843 C 243.600 266.647,243.161 266.377,242.624 266.242 C 241.830 266.042,241.598 265.662,241.379 264.198 C 241.231 263.209,240.950 262.400,240.755 262.400 C 240.556 262.400,240.400 256.774,240.400 249.600 L 240.400 236.800 235.800 236.800 L 231.200 236.800 231.200 251.000 M267.600 240.600 L 267.600 244.400 272.800 244.400 L 278.000 244.400 278.000 259.600 L 278.000 274.800 282.400 274.800 L 286.800 274.800 286.800 259.600 L 286.800 244.400 292.000 244.400 L 297.200 244.400 297.200 240.600 L 297.200 236.800 282.400 236.800 L 267.600 236.800 267.600 240.600 M319.600 243.949 C 319.600 244.141,320.323 244.413,321.206 244.555 C 322.850 244.818,326.000 247.485,326.000 248.615 C 326.000 248.900,326.225 249.208,326.500 249.300 C 326.872 249.424,327.000 251.089,327.000 255.800 C 327.000 260.511,326.872 262.176,326.500 262.300 C 326.225 262.392,326.000 262.639,326.000 262.850 C 326.000 263.061,325.640 263.620,325.200 264.092 C 324.760 264.564,324.400 265.167,324.400 265.432 C 324.400 265.697,323.950 266.026,323.400 266.164 C 322.850 266.302,322.400 266.592,322.400 266.808 C 322.400 267.023,321.950 267.200,321.400 267.200 C 320.850 267.200,320.400 267.380,320.400 267.600 C 320.400 267.820,319.590 268.000,318.600 268.000 C 317.610 268.000,316.800 267.820,316.800 267.600 C 316.800 267.380,316.461 267.200,316.046 267.200 C 314.080 267.200,311.256 264.656,310.920 262.582 C 310.795 261.811,310.536 261.084,310.346 260.967 C 309.850 260.660,309.903 250.400,310.400 250.400 C 310.620 250.400,310.800 249.963,310.800 249.429 C 310.800 248.894,311.070 248.187,311.400 247.857 C 311.730 247.527,312.000 247.141,312.000 247.000 C 312.000 246.859,312.254 246.489,312.564 246.179 C 312.875 245.868,313.191 245.428,313.267 245.200 C 313.343 244.972,314.349 244.674,315.502 244.537 C 316.656 244.400,317.600 244.134,317.600 243.944 C 317.600 243.755,318.050 243.600,318.600 243.600 C 319.150 243.600,319.600 243.757,319.600 243.949 M90.000 300.600 L 90.000 320.000 94.600 320.000 L 99.200 320.000 99.200 312.800 L 99.200 305.600 105.800 305.600 L 112.400 305.600 112.400 301.800 L 112.400 298.000 105.800 298.000 L 99.200 298.000 99.200 293.400 L 99.200 288.800 106.200 288.800 L 113.200 288.800 113.200 285.000 L 113.200 281.200 101.600 281.200 L 90.000 281.200 90.000 300.600 M119.200 300.600 L 119.200 320.000 130.800 320.000 L 142.400 320.000 142.400 316.200 L 142.400 312.400 135.400 312.400 L 128.400 312.400 128.400 308.200 L 128.400 304.000 134.600 304.000 L 140.800 304.000 140.800 300.200 L 140.800 296.400 134.600 296.400 L 128.400 296.400 128.400 292.600 L 128.400 288.800 135.400 288.800 L 142.400 288.800 142.400 285.000 L 142.400 281.200 130.800 281.200 L 119.200 281.200 119.200 300.600 M148.400 300.600 L 148.400 320.000 156.400 320.000 C 160.800 320.000,164.400 319.844,164.400 319.654 C 164.400 319.463,165.615 319.210,167.100 319.091 C 169.686 318.884,171.990 318.135,171.997 317.500 C 171.999 317.335,172.280 317.200,172.622 317.200 C 173.412 317.200,178.005 312.590,178.799 311.000 C 179.129 310.340,179.538 309.697,179.708 309.571 C 179.878 309.445,180.129 308.140,180.266 306.671 C 180.403 305.202,180.670 304.000,180.858 304.000 C 181.046 304.000,181.200 302.290,181.200 300.200 C 181.200 298.110,181.042 296.400,180.850 296.400 C 180.657 296.400,180.414 295.374,180.310 294.120 C 180.206 292.866,179.914 291.771,179.660 291.687 C 179.407 291.602,179.200 291.188,179.200 290.767 C 179.200 290.345,179.020 290.000,178.800 290.000 C 178.580 290.000,178.400 289.730,178.400 289.400 C 178.400 289.070,178.232 288.800,178.027 288.800 C 177.822 288.800,177.553 288.485,177.429 288.100 C 177.078 287.006,175.492 285.344,174.500 285.030 C 174.005 284.874,173.600 284.578,173.600 284.373 C 173.600 284.168,173.240 284.000,172.800 284.000 C 172.360 284.000,172.000 283.820,172.000 283.600 C 172.000 283.380,171.745 283.200,171.433 283.200 C 171.122 283.200,170.802 283.006,170.723 282.768 C 170.644 282.531,169.099 282.235,167.289 282.111 C 165.480 281.987,164.000 281.731,164.000 281.543 C 164.000 281.354,160.490 281.200,156.200 281.200 L 148.400 281.200 148.400 300.600 M187.600 300.600 L 187.600 320.000 199.000 320.000 L 210.400 320.000 210.400 316.200 L 210.400 312.400 203.400 312.400 L 196.400 312.400 196.400 308.200 L 196.400 304.000 202.800 304.000 L 209.200 304.000 209.200 300.200 L 209.200 296.400 202.800 296.400 L 196.400 296.400 196.400 292.600 L 196.400 288.800 203.400 288.800 L 210.400 288.800 210.400 285.000 L 210.400 281.200 199.000 281.200 L 187.600 281.200 187.600 300.600 M216.800 300.600 L 216.800 320.000 221.600 320.000 L 226.400 320.000 226.400 312.800 L 226.400 305.600 227.567 305.600 C 229.255 305.600,230.000 305.981,230.000 306.843 C 230.000 307.259,230.177 307.600,230.392 307.600 C 230.608 307.600,230.898 308.050,231.036 308.600 C 231.174 309.150,231.447 309.600,231.643 309.600 C 231.840 309.600,232.000 309.870,232.000 310.200 C 232.000 310.530,232.147 310.800,232.326 310.800 C 232.505 310.800,232.952 311.430,233.319 312.200 C 233.687 312.970,234.170 313.600,234.394 313.600 C 234.617 313.600,234.800 313.960,234.800 314.400 C 234.800 314.840,234.960 315.200,235.157 315.200 C 235.353 315.200,235.626 315.650,235.764 316.200 C 235.902 316.750,236.192 317.200,236.408 317.200 C 236.623 317.200,236.800 317.560,236.800 318.000 C 236.800 318.440,236.980 318.800,237.200 318.800 C 237.420 318.800,237.600 319.073,237.600 319.407 C 237.600 319.936,238.847 320.000,247.300 319.907 L 257.000 319.800 257.345 317.500 C 257.535 316.235,257.850 315.200,258.045 315.200 C 258.240 315.200,258.400 314.750,258.400 314.200 C 258.400 313.650,258.580 313.200,258.800 313.200 C 259.020 313.200,259.200 312.750,259.200 312.200 L 259.200 311.200 265.167 311.200 C 271.891 311.200,272.400 311.301,272.400 312.643 C 272.400 313.169,272.555 313.600,272.744 313.600 C 272.934 313.600,273.198 314.520,273.331 315.645 C 273.464 316.770,273.803 318.210,274.084 318.845 L 274.595 320.000 279.350 320.000 L 284.104 320.000 283.891 318.113 C 283.774 317.075,283.481 316.160,283.239 316.080 C 282.998 315.999,282.800 315.509,282.800 314.990 C 282.800 314.472,282.620 313.936,282.400 313.800 C 282.180 313.664,282.000 313.113,282.000 312.576 C 282.000 312.039,281.837 311.600,281.638 311.600 C 281.438 311.600,281.151 310.700,281.000 309.600 C 280.849 308.500,280.562 307.600,280.362 307.600 C 280.163 307.600,280.000 307.150,280.000 306.600 C 280.000 306.050,279.831 305.600,279.625 305.600 C 279.418 305.600,279.128 304.790,278.979 303.800 C 278.831 302.810,278.550 302.000,278.355 302.000 C 278.160 302.000,278.000 301.550,278.000 301.000 C 278.000 300.450,277.820 300.000,277.600 300.000 C 277.380 300.000,277.200 299.550,277.200 299.000 C 277.200 298.450,277.043 298.000,276.852 298.000 C 276.660 298.000,276.385 297.107,276.240 296.016 C 276.095 294.925,275.802 293.925,275.588 293.793 C 275.375 293.661,275.200 293.113,275.200 292.576 C 275.200 292.039,275.020 291.600,274.800 291.600 C 274.580 291.600,274.400 291.240,274.400 290.800 C 274.400 290.360,274.237 290.000,274.038 290.000 C 273.838 290.000,273.551 289.100,273.400 288.000 C 273.249 286.900,272.962 286.000,272.762 286.000 C 272.563 286.000,272.400 285.550,272.400 285.000 C 272.400 284.450,272.220 284.000,272.000 284.000 C 271.780 284.000,271.600 283.627,271.600 283.171 C 271.600 281.452,270.786 281.200,265.229 281.200 L 260.000 281.200 260.000 282.200 C 260.000 282.750,259.820 283.200,259.600 283.200 C 259.380 283.200,259.200 283.560,259.200 284.000 C 259.200 284.440,259.020 284.800,258.800 284.800 C 258.580 284.800,258.400 285.250,258.400 285.800 C 258.400 286.350,258.237 286.800,258.038 286.800 C 257.838 286.800,257.551 287.700,257.400 288.800 C 257.249 289.900,256.962 290.800,256.762 290.800 C 256.563 290.800,256.400 291.250,256.400 291.800 C 256.400 292.350,256.220 292.800,256.000 292.800 C 255.780 292.800,255.600 293.340,255.600 294.000 C 255.600 294.660,255.422 295.200,255.205 295.200 C 254.987 295.200,254.694 295.920,254.554 296.800 C 254.413 297.680,254.141 298.400,253.949 298.400 C 253.757 298.400,253.600 298.839,253.600 299.376 C 253.600 299.913,253.420 300.464,253.200 300.600 C 252.980 300.736,252.800 301.287,252.800 301.824 C 252.800 302.361,252.637 302.800,252.438 302.800 C 252.238 302.800,251.951 303.700,251.800 304.800 C 251.649 305.900,251.362 306.800,251.162 306.800 C 250.963 306.800,250.800 307.235,250.800 307.767 C 250.800 308.298,250.665 308.793,250.500 308.867 C 250.114 309.038,248.795 312.783,248.798 313.700 C 248.799 314.085,248.620 314.400,248.400 314.400 C 248.180 314.400,248.000 314.828,248.000 315.351 C 248.000 316.881,247.036 317.388,246.397 316.195 C 246.104 315.648,245.715 315.200,245.532 315.200 C 245.350 315.200,245.200 314.930,245.200 314.600 C 245.200 314.270,245.053 314.000,244.874 314.000 C 244.695 314.000,244.248 313.370,243.881 312.600 C 243.513 311.830,243.030 311.200,242.806 311.200 C 242.583 311.200,242.400 310.840,242.400 310.400 C 242.400 309.960,242.261 309.600,242.091 309.600 C 241.921 309.600,241.443 308.970,241.028 308.200 C 240.613 307.430,240.122 306.800,239.937 306.800 C 239.752 306.800,239.600 306.530,239.600 306.200 C 239.600 305.870,239.438 305.600,239.239 305.600 C 238.457 305.600,237.980 303.183,238.707 302.904 C 239.706 302.520,242.400 299.661,242.400 298.984 C 242.400 298.663,242.535 298.399,242.700 298.397 C 242.865 298.395,243.225 297.909,243.500 297.317 C 244.103 296.018,244.188 288.800,243.600 288.800 C 243.380 288.800,243.200 288.431,243.200 287.981 C 243.200 287.149,240.112 283.834,238.442 282.874 C 237.938 282.584,236.283 282.243,234.763 282.116 C 233.243 281.988,232.000 281.730,232.000 281.542 C 232.000 281.354,228.580 281.200,224.400 281.200 L 216.800 281.200 216.800 300.600 M287.600 300.600 L 287.600 320.000 299.800 320.000 L 312.000 320.000 312.000 316.200 L 312.000 312.400 304.400 312.400 L 296.800 312.400 296.800 296.800 L 296.800 281.200 292.200 281.200 L 287.600 281.200 287.600 300.600 M162.400 289.150 C 162.400 289.343,163.366 289.581,164.546 289.679 C 166.770 289.863,170.000 292.313,170.000 293.816 C 170.000 294.137,170.180 294.400,170.400 294.400 C 170.620 294.400,170.800 294.850,170.800 295.400 C 170.800 295.950,170.980 296.400,171.200 296.400 C 171.439 296.400,171.600 297.933,171.600 300.200 C 171.600 302.467,171.439 304.000,171.200 304.000 C 170.980 304.000,170.800 304.350,170.800 304.779 C 170.800 306.317,168.230 310.400,167.262 310.400 C 167.045 310.400,166.804 310.589,166.727 310.819 C 166.650 311.050,165.550 311.346,164.282 311.476 C 163.014 311.607,161.881 311.869,161.765 312.057 C 161.648 312.246,160.663 312.400,159.576 312.400 L 157.600 312.400 157.600 300.600 L 157.600 288.800 160.000 288.800 C 161.320 288.800,162.400 288.958,162.400 289.150 M229.200 289.148 C 229.200 289.339,230.032 289.590,231.048 289.704 C 234.671 290.113,236.051 293.493,233.613 295.986 C 232.961 296.654,232.151 297.200,231.813 297.200 C 231.476 297.200,231.200 297.380,231.200 297.600 C 231.200 297.822,230.133 298.000,228.800 298.000 L 226.400 298.000 226.400 293.400 L 226.400 288.800 227.800 288.800 C 228.570 288.800,229.200 288.957,229.200 289.148 M266.000 292.224 C 266.000 292.981,266.180 293.600,266.400 293.600 C 266.620 293.600,266.800 294.050,266.800 294.600 C 266.800 295.150,266.957 295.600,267.148 295.600 C 267.340 295.600,267.615 296.493,267.760 297.584 C 267.905 298.675,268.198 299.675,268.412 299.807 C 268.625 299.939,268.800 300.541,268.800 301.144 C 268.800 301.747,269.016 302.456,269.280 302.720 C 269.653 303.093,268.898 303.200,265.880 303.200 C 262.008 303.200,262.000 303.198,262.000 302.200 C 262.000 301.650,262.163 301.200,262.362 301.200 C 262.562 301.200,262.849 300.300,263.000 299.200 C 263.151 298.100,263.438 297.200,263.638 297.200 C 263.837 297.200,264.000 296.570,264.000 295.800 C 264.000 295.030,264.163 294.400,264.362 294.400 C 264.562 294.400,264.849 293.500,265.000 292.400 C 265.305 290.185,266.000 290.062,266.000 292.224 M84.400 349.600 L 84.400 365.200 86.800 365.200 L 89.200 365.200 89.200 349.600 L 89.200 334.000 86.800 334.000 L 84.400 334.000 84.400 349.600 M268.800 339.200 C 268.800 342.400,268.646 344.400,268.400 344.400 C 268.180 344.400,267.999 344.265,267.997 344.100 C 267.995 343.935,267.509 343.575,266.917 343.300 C 265.629 342.702,259.200 342.618,259.200 343.200 C 259.200 343.420,258.840 343.600,258.400 343.600 C 257.960 343.600,257.600 343.780,257.600 344.000 C 257.600 344.220,257.407 344.400,257.171 344.400 C 256.936 344.400,256.486 344.657,256.171 344.971 C 255.857 345.286,255.600 345.736,255.600 345.971 C 255.600 346.207,255.440 346.400,255.245 346.400 C 255.049 346.400,254.771 347.030,254.626 347.800 C 254.482 348.570,254.192 349.200,253.982 349.200 C 253.761 349.200,253.600 351.219,253.600 354.000 C 253.600 356.640,253.756 358.800,253.947 358.800 C 254.138 358.800,254.392 359.526,254.511 360.413 C 254.762 362.283,257.558 365.200,259.100 365.200 C 259.595 365.200,260.000 365.380,260.000 365.600 C 260.000 365.831,261.267 366.000,263.000 366.000 C 264.733 366.000,266.000 365.831,266.000 365.600 C 266.000 365.380,266.360 365.200,266.800 365.200 C 267.240 365.200,267.601 365.065,267.603 364.900 C 267.605 364.735,268.055 364.392,268.603 364.138 C 269.479 363.732,269.600 363.768,269.600 364.438 C 269.600 365.075,269.896 365.200,271.400 365.200 L 273.200 365.200 273.200 349.600 L 273.200 334.000 271.000 334.000 L 268.800 334.000 268.800 339.200 M44.800 335.600 C 44.800 335.820,44.170 336.000,43.400 336.000 C 42.630 336.000,42.000 336.180,42.000 336.400 C 42.000 336.620,41.807 336.800,41.571 336.800 C 41.173 336.800,40.842 337.038,39.514 338.281 C 38.146 339.561,38.000 340.071,38.000 343.583 C 38.000 345.728,38.163 347.200,38.400 347.200 C 38.620 347.200,38.800 347.468,38.800 347.797 C 38.800 348.679,41.208 350.822,42.488 351.078 C 43.100 351.200,43.600 351.414,43.600 351.552 C 43.600 351.691,44.185 352.047,44.900 352.343 C 45.615 352.639,46.767 353.132,47.460 353.440 C 48.154 353.748,48.837 354.000,48.979 354.000 C 49.401 354.000,51.200 355.929,51.200 356.382 C 51.200 356.612,51.380 356.800,51.600 356.800 C 51.820 356.800,52.000 357.160,52.000 357.600 C 52.000 358.040,51.820 358.400,51.600 358.400 C 51.380 358.400,51.200 358.588,51.200 358.818 C 51.200 360.924,40.743 362.829,40.081 360.844 C 39.563 359.288,37.200 360.424,37.200 362.229 C 37.200 364.378,37.856 365.200,39.571 365.200 C 40.247 365.200,40.800 365.380,40.800 365.600 C 40.800 365.841,42.467 366.000,45.000 366.000 C 47.533 366.000,49.200 365.841,49.200 365.600 C 49.200 365.380,49.622 365.200,50.139 365.200 C 51.952 365.200,55.200 363.008,55.200 361.784 C 55.200 361.463,55.380 361.200,55.600 361.200 C 55.839 361.200,56.000 359.667,56.000 357.400 C 56.000 355.310,55.842 353.600,55.649 353.600 C 55.455 353.600,55.080 353.076,54.814 352.435 C 54.535 351.761,53.924 351.167,53.366 351.027 C 52.835 350.894,52.400 350.608,52.400 350.392 C 52.400 350.177,52.130 350.000,51.800 350.000 C 51.470 350.000,51.200 349.820,51.200 349.600 C 51.200 349.380,50.861 349.200,50.446 349.200 C 50.031 349.200,49.176 348.931,48.546 348.602 C 47.916 348.274,46.995 348.004,46.500 348.002 C 46.005 348.001,45.600 347.820,45.600 347.600 C 45.600 347.380,45.252 347.200,44.827 347.200 C 44.402 347.200,43.940 346.840,43.800 346.400 C 43.660 345.960,43.378 345.600,43.173 345.600 C 42.968 345.600,42.800 345.330,42.800 345.000 C 42.800 344.670,42.620 344.400,42.400 344.400 C 41.789 344.400,41.924 342.819,42.591 342.152 C 42.916 341.827,43.451 341.176,43.780 340.707 C 44.462 339.733,50.808 339.423,51.116 340.348 C 51.357 341.072,54.670 340.916,54.957 340.167 C 55.607 338.475,55.230 336.800,54.200 336.800 C 53.650 336.800,53.200 336.620,53.200 336.400 C 53.200 336.180,52.390 336.000,51.400 336.000 C 50.410 336.000,49.600 335.820,49.600 335.600 C 49.600 335.378,48.533 335.200,47.200 335.200 C 45.867 335.200,44.800 335.378,44.800 335.600 M123.843 335.833 C 123.331 337.166,123.574 340.000,124.200 340.000 C 124.530 340.000,124.800 340.180,124.800 340.400 C 124.800 340.620,125.250 340.800,125.800 340.800 C 126.350 340.800,126.800 340.620,126.800 340.400 C 126.800 340.180,127.160 340.000,127.600 340.000 C 128.594 340.000,128.771 336.714,127.829 335.771 C 127.031 334.974,124.155 335.018,123.843 335.833 M60.267 343.067 C 59.825 343.509,59.953 360.724,60.400 361.000 C 60.620 361.136,60.800 361.618,60.800 362.071 C 60.800 363.118,63.116 365.185,64.300 365.194 C 64.795 365.197,65.200 365.380,65.200 365.600 C 65.200 365.831,66.467 366.000,68.200 366.000 C 69.933 366.000,71.200 365.831,71.200 365.600 C 71.200 365.380,71.573 365.200,72.029 365.200 C 72.484 365.200,73.127 364.930,73.457 364.600 C 73.787 364.270,74.211 364.000,74.400 364.000 C 74.589 364.000,75.013 364.270,75.343 364.600 C 75.673 364.930,76.586 365.200,77.371 365.200 L 78.800 365.200 78.800 354.000 L 78.800 342.800 76.800 342.800 L 74.800 342.800 74.800 349.776 C 74.800 353.613,74.640 356.851,74.445 356.972 C 74.250 357.093,73.975 357.778,73.833 358.496 C 73.072 362.343,65.200 363.141,65.200 359.371 C 65.200 358.837,65.020 358.400,64.800 358.400 C 64.547 358.400,64.400 355.533,64.400 350.600 L 64.400 342.800 62.467 342.800 C 61.403 342.800,60.413 342.920,60.267 343.067 M107.600 353.978 L 107.600 365.200 109.600 365.200 L 111.600 365.200 111.600 359.000 C 111.600 355.133,111.751 352.800,112.000 352.800 C 112.220 352.800,112.400 352.500,112.400 352.134 C 112.400 350.763,113.767 348.373,114.683 348.143 C 115.187 348.017,115.600 347.753,115.600 347.557 C 115.600 347.360,116.770 347.200,118.200 347.200 L 120.800 347.200 120.800 345.000 L 120.800 342.800 117.995 342.800 C 115.184 342.800,113.973 343.193,112.757 344.500 C 111.873 345.450,111.675 345.386,111.527 344.100 C 111.411 343.093,111.240 342.990,109.500 342.878 L 107.600 342.756 107.600 353.978 M123.885 343.049 C 123.728 343.205,123.600 348.253,123.600 354.267 L 123.600 365.200 126.006 365.200 L 128.413 365.200 128.306 354.100 L 128.200 343.000 126.185 342.882 C 125.076 342.817,124.041 342.892,123.885 343.049 M138.800 343.102 C 138.800 343.269,138.228 343.658,137.528 343.968 C 135.834 344.718,134.800 345.639,134.800 346.401 C 134.800 346.743,134.440 347.283,134.000 347.600 C 133.480 347.975,133.200 348.635,133.200 349.488 C 133.200 350.210,133.020 350.800,132.800 350.800 C 132.563 350.800,132.400 352.259,132.400 354.376 C 132.400 356.343,132.580 358.064,132.800 358.200 C 133.020 358.336,133.200 358.887,133.200 359.424 C 133.200 359.961,133.380 360.400,133.600 360.400 C 133.820 360.400,134.000 360.588,134.000 360.817 C 134.000 361.633,136.640 364.400,137.418 364.400 C 137.738 364.400,138.000 364.580,138.000 364.800 C 138.000 365.020,138.439 365.200,138.976 365.200 C 139.513 365.200,140.064 365.380,140.200 365.600 C 140.336 365.820,141.607 366.000,143.024 366.000 C 144.475 366.000,145.600 365.825,145.600 365.600 C 145.600 365.380,146.140 365.200,146.800 365.200 C 147.460 365.200,148.000 365.020,148.000 364.800 C 148.000 364.580,148.262 364.400,148.582 364.400 C 149.340 364.400,152.000 361.637,152.000 360.850 C 152.000 360.639,152.225 360.392,152.500 360.300 C 152.869 360.177,153.000 358.631,153.000 354.400 C 153.000 350.169,152.869 348.623,152.500 348.500 C 152.225 348.408,152.000 348.078,152.000 347.767 C 152.000 347.455,151.820 347.200,151.600 347.200 C 151.380 347.200,151.200 346.958,151.200 346.661 C 151.200 345.867,149.807 344.400,149.053 344.400 C 148.694 344.400,148.399 344.265,148.397 344.100 C 148.395 343.935,147.909 343.575,147.317 343.300 C 146.158 342.762,138.800 342.591,138.800 343.102 M173.366 343.343 C 171.780 344.227,170.000 346.201,170.000 347.075 C 170.000 347.558,169.820 348.064,169.600 348.200 C 168.459 348.905,169.525 354.001,171.112 355.426 C 171.990 356.216,172.019 357.600,171.157 357.600 C 170.586 357.600,170.720 362.307,171.296 362.499 C 171.946 362.715,170.918 363.782,169.681 364.174 C 169.173 364.335,168.800 364.781,168.800 365.227 C 168.800 365.652,168.620 366.000,168.400 366.000 C 168.171 366.000,168.000 367.200,168.000 368.800 C 168.000 370.400,168.171 371.600,168.400 371.600 C 168.620 371.600,168.800 371.793,168.800 372.029 C 168.800 372.567,169.811 373.600,170.338 373.600 C 170.555 373.600,170.808 373.825,170.900 374.100 C 171.161 374.883,183.099 374.796,184.632 374.000 C 186.267 373.150,188.000 371.430,188.000 370.657 C 188.000 370.296,188.180 370.000,188.400 370.000 C 188.629 370.000,188.800 368.800,188.800 367.200 C 188.800 365.660,188.640 364.400,188.443 364.400 C 188.247 364.400,187.984 363.995,187.858 363.500 C 187.437 361.841,186.151 361.432,180.828 361.268 C 175.794 361.112,174.800 360.813,174.800 359.456 C 174.800 359.125,175.160 358.740,175.600 358.600 C 176.040 358.460,176.400 358.178,176.400 357.973 C 176.400 357.768,177.660 357.600,179.200 357.600 C 180.800 357.600,182.000 357.429,182.000 357.200 C 182.000 356.980,182.270 356.800,182.600 356.800 C 182.930 356.800,183.200 356.633,183.200 356.428 C 183.200 356.223,183.605 355.998,184.100 355.928 C 184.678 355.846,185.046 355.478,185.128 354.900 C 185.198 354.405,185.423 354.000,185.628 354.000 C 185.833 354.000,186.000 353.550,186.000 353.000 C 186.000 352.450,186.180 352.000,186.400 352.000 C 186.620 352.000,186.800 351.190,186.800 350.200 C 186.800 349.210,186.620 348.400,186.400 348.400 C 186.180 348.400,186.000 347.950,186.000 347.400 C 186.000 346.524,186.173 346.400,187.400 346.400 C 188.793 346.400,188.800 346.390,188.800 344.600 L 188.800 342.800 181.500 342.839 C 176.769 342.865,173.906 343.042,173.366 343.343 M192.400 353.977 L 192.400 365.200 194.400 365.200 L 196.400 365.200 196.400 358.200 C 196.400 353.800,196.549 351.200,196.800 351.200 C 197.020 351.200,197.200 351.007,197.200 350.771 C 197.200 350.373,197.438 350.042,198.681 348.714 C 199.866 347.448,200.504 347.200,202.583 347.200 C 204.533 347.200,204.800 347.104,204.800 346.400 C 204.800 345.960,204.980 345.600,205.200 345.600 C 205.420 345.600,205.600 344.970,205.600 344.200 L 205.600 342.800 202.478 342.800 C 199.448 342.800,199.310 342.842,197.778 344.249 L 196.200 345.697 196.000 344.349 C 195.813 343.085,195.693 342.992,194.100 342.877 L 192.400 342.754 192.400 353.977 M212.000 343.200 C 212.000 343.420,211.572 343.600,211.049 343.600 C 209.620 343.600,209.081 344.510,209.398 346.386 C 209.658 347.930,212.400 349.038,212.400 347.600 C 212.400 347.380,213.030 347.200,213.800 347.200 C 214.570 347.200,215.200 347.020,215.200 346.800 C 215.200 346.580,215.830 346.400,216.600 346.400 C 217.370 346.400,218.000 346.580,218.000 346.800 C 218.000 347.020,218.339 347.200,218.753 347.200 C 219.551 347.200,219.985 348.216,219.995 350.100 C 219.999 351.008,219.826 351.200,219.000 351.200 C 218.450 351.200,218.000 351.380,218.000 351.600 C 218.000 351.831,216.733 352.000,215.000 352.000 C 213.267 352.000,212.000 352.169,212.000 352.400 C 212.000 352.620,211.557 352.800,211.016 352.800 C 210.409 352.800,209.414 353.406,208.416 354.384 L 206.800 355.968 206.800 359.320 C 206.800 362.923,208.190 365.200,210.389 365.200 C 210.835 365.200,211.200 365.380,211.200 365.600 C 211.200 365.831,212.467 366.000,214.200 366.000 C 215.933 366.000,217.200 365.831,217.200 365.600 C 217.200 365.380,217.545 365.200,217.967 365.200 C 218.388 365.200,218.793 365.044,218.867 364.853 C 219.137 364.148,220.800 363.908,220.800 364.573 C 220.800 365.066,221.269 365.200,223.000 365.200 L 225.200 365.200 225.200 356.600 C 225.200 351.133,225.054 348.000,224.800 348.000 C 224.580 348.000,224.400 347.460,224.400 346.800 C 224.400 346.140,224.220 345.600,224.000 345.600 C 223.780 345.600,223.600 345.330,223.600 345.000 C 223.600 344.670,223.330 344.400,223.000 344.400 C 222.670 344.400,222.400 344.249,222.400 344.064 C 222.400 343.880,221.942 343.520,221.381 343.264 C 220.119 342.689,212.000 342.634,212.000 343.200 M230.800 354.000 L 230.800 365.200 232.800 365.200 L 234.800 365.200 234.800 358.024 C 234.800 354.070,234.966 350.745,235.169 350.619 C 235.372 350.494,235.650 349.884,235.786 349.263 C 235.963 348.457,236.427 347.982,237.417 347.593 C 238.178 347.295,238.800 346.904,238.800 346.725 C 238.800 346.219,241.112 346.343,242.075 346.900 C 244.501 348.303,244.400 347.869,244.400 356.889 L 244.400 365.200 246.832 365.200 L 249.264 365.200 249.132 355.823 L 249.000 346.446 247.678 345.154 C 244.529 342.076,237.742 341.722,235.157 344.500 C 234.243 345.483,234.000 345.378,234.000 344.000 C 234.000 342.867,233.911 342.800,232.400 342.800 L 230.800 342.800 230.800 354.000 M283.800 343.200 C 283.664 343.420,283.300 343.600,282.991 343.600 C 281.924 343.600,279.194 346.894,278.939 348.491 C 278.806 349.321,278.541 350.000,278.349 350.000 C 278.157 350.000,278.000 351.980,278.000 354.400 C 278.000 357.067,278.158 358.800,278.400 358.800 C 278.620 358.800,278.800 359.289,278.800 359.887 C 278.800 360.524,279.184 361.311,279.728 361.787 C 280.238 362.234,280.774 362.919,280.918 363.308 C 281.063 363.698,281.725 364.125,282.391 364.258 C 283.056 364.391,283.600 364.658,283.600 364.850 C 283.600 365.043,284.050 365.200,284.600 365.200 C 285.150 365.200,285.600 365.380,285.600 365.600 C 285.600 365.835,287.000 366.000,289.000 366.000 C 291.000 366.000,292.400 365.835,292.400 365.600 C 292.400 365.380,292.953 365.200,293.629 365.200 C 295.344 365.200,296.000 364.378,296.000 362.229 C 296.000 360.404,294.402 359.393,293.900 360.900 C 293.235 362.897,283.600 361.063,283.600 358.939 C 283.600 358.642,283.420 358.400,283.200 358.400 C 282.980 358.400,282.800 357.770,282.800 357.000 L 282.800 355.600 289.800 355.600 L 296.800 355.600 296.800 352.000 C 296.800 349.867,296.637 348.400,296.400 348.400 C 296.180 348.400,296.000 348.026,296.000 347.569 C 296.000 346.733,293.704 344.231,292.082 343.300 C 291.034 342.699,284.161 342.616,283.800 343.200 M301.600 353.977 L 301.600 365.200 303.600 365.200 L 305.600 365.200 305.600 358.280 C 305.600 351.722,305.959 349.213,306.900 349.203 C 307.065 349.201,307.200 348.995,307.200 348.744 C 307.200 348.129,308.435 347.228,309.300 347.213 C 309.685 347.206,310.000 347.020,310.000 346.800 C 310.000 346.580,310.630 346.400,311.400 346.400 C 312.170 346.400,312.800 346.580,312.800 346.800 C 312.800 347.020,313.025 347.206,313.300 347.213 C 315.373 347.268,315.600 348.232,315.600 356.964 L 315.600 365.200 318.000 365.200 L 320.400 365.200 320.400 356.600 C 320.400 351.133,320.254 348.000,320.000 348.000 C 319.780 348.000,319.597 347.595,319.594 347.100 C 319.586 346.015,317.553 343.600,316.647 343.600 C 316.291 343.600,316.000 343.420,316.000 343.200 C 316.000 342.960,314.400 342.800,312.000 342.800 C 309.600 342.800,308.000 342.960,308.000 343.200 C 308.000 343.420,307.680 343.600,307.288 343.600 C 306.897 343.600,306.312 343.969,305.988 344.421 C 305.411 345.226,305.396 345.221,305.198 344.121 C 305.019 343.127,304.804 342.986,303.298 342.877 L 301.600 342.754 301.600 353.977 M327.700 343.344 C 327.205 343.589,326.800 343.927,326.800 344.095 C 326.800 344.263,326.440 344.400,326.000 344.400 C 325.560 344.400,325.200 344.655,325.200 344.967 C 325.200 345.278,324.976 345.608,324.703 345.699 C 324.009 345.930,324.006 351.667,324.700 351.899 C 324.975 351.991,325.200 352.293,325.200 352.569 C 325.200 352.845,325.650 353.277,326.200 353.527 C 326.750 353.778,327.200 354.167,327.200 354.391 C 327.200 354.616,327.539 354.800,327.954 354.800 C 328.369 354.800,329.224 355.069,329.854 355.398 C 330.484 355.726,331.405 355.996,331.900 355.998 C 332.395 355.999,332.800 356.180,332.800 356.400 C 332.800 356.620,333.086 356.800,333.436 356.800 C 335.190 356.800,336.161 359.768,334.808 360.993 C 333.883 361.830,326.369 361.708,326.084 360.851 C 325.563 359.290,324.000 360.452,324.000 362.400 C 324.000 363.911,324.147 364.400,324.600 364.400 C 324.930 364.400,325.200 364.580,325.200 364.800 C 325.200 365.020,325.650 365.200,326.200 365.200 C 326.750 365.200,327.200 365.380,327.200 365.600 C 327.200 365.839,328.733 366.000,331.000 366.000 C 333.267 366.000,334.800 365.839,334.800 365.600 C 334.800 365.380,335.340 365.200,336.000 365.200 C 336.660 365.200,337.200 365.063,337.200 364.895 C 337.200 364.727,337.605 364.412,338.100 364.195 C 341.826 362.560,340.837 354.547,336.810 353.742 C 336.145 353.609,335.600 353.343,335.600 353.150 C 335.600 352.957,335.330 352.800,335.000 352.800 C 334.670 352.800,334.400 352.620,334.400 352.400 C 334.400 352.180,333.860 352.000,333.200 352.000 C 332.540 352.000,332.000 351.828,332.000 351.618 C 332.000 351.408,331.368 351.118,330.596 350.973 C 328.546 350.588,328.035 347.200,330.027 347.200 C 330.452 347.200,330.800 347.020,330.800 346.800 C 330.800 346.580,331.610 346.400,332.600 346.400 C 333.590 346.400,334.400 346.580,334.400 346.800 C 334.400 347.020,334.839 347.200,335.376 347.200 C 335.913 347.200,336.464 347.380,336.600 347.600 C 337.186 348.548,338.761 348.003,339.415 346.624 C 340.262 344.840,340.052 343.835,338.796 343.666 C 338.248 343.593,337.629 343.368,337.420 343.166 C 336.888 342.654,328.795 342.802,327.700 343.344 M348.640 343.324 C 346.969 344.371,344.800 346.608,344.800 347.284 C 344.800 347.678,344.620 348.000,344.400 348.000 C 344.180 348.000,344.000 348.450,344.000 349.000 C 344.000 349.550,343.820 350.000,343.600 350.000 C 343.358 350.000,343.200 351.733,343.200 354.400 C 343.200 357.067,343.358 358.800,343.600 358.800 C 343.820 358.800,344.000 359.207,344.000 359.704 C 344.000 360.201,344.450 361.093,345.000 361.687 C 345.550 362.280,346.000 362.941,346.000 363.157 C 346.000 363.372,346.630 363.776,347.400 364.054 C 348.170 364.333,348.800 364.705,348.800 364.880 C 348.800 365.056,349.250 365.200,349.800 365.200 C 350.350 365.200,350.800 365.380,350.800 365.600 C 350.800 365.837,352.267 366.000,354.400 366.000 C 356.533 366.000,358.000 365.837,358.000 365.600 C 358.000 365.380,358.611 365.200,359.357 365.200 C 360.921 365.200,361.200 364.742,361.200 362.167 C 361.200 360.399,359.591 359.426,359.101 360.897 C 358.443 362.870,348.800 360.924,348.800 358.818 C 348.800 358.588,348.620 358.400,348.400 358.400 C 348.180 358.400,348.000 357.770,348.000 357.000 L 348.000 355.600 355.000 355.600 L 362.000 355.600 362.000 352.000 C 362.000 349.867,361.837 348.400,361.600 348.400 C 361.380 348.400,361.200 347.957,361.200 347.416 C 361.200 346.874,360.921 346.199,360.581 345.916 C 360.240 345.632,359.625 345.067,359.213 344.659 C 357.375 342.840,350.747 342.003,348.640 343.324 M144.400 346.800 C 144.400 347.020,144.625 347.203,144.900 347.206 C 145.175 347.210,146.030 347.768,146.800 348.447 L 148.200 349.681 148.200 354.359 C 148.200 359.007,148.193 359.044,147.018 360.218 C 144.529 362.707,138.000 361.404,138.000 358.418 C 138.000 357.968,137.820 357.600,137.600 357.600 C 137.020 357.600,137.102 351.570,137.700 350.283 C 137.975 349.691,138.335 349.205,138.500 349.203 C 138.665 349.201,138.800 348.930,138.800 348.600 C 138.800 348.270,139.070 348.000,139.400 348.000 C 139.730 348.000,140.000 347.820,140.000 347.600 C 140.000 347.380,140.360 347.200,140.800 347.200 C 141.240 347.200,141.600 347.020,141.600 346.800 C 141.600 346.580,142.230 346.400,143.000 346.400 C 143.770 346.400,144.400 346.580,144.400 346.800 M180.000 346.800 C 180.000 347.020,180.270 347.200,180.600 347.200 C 180.930 347.200,181.200 347.470,181.200 347.800 C 181.200 348.130,181.380 348.400,181.600 348.400 C 182.440 348.400,182.054 352.460,181.139 353.253 C 179.114 355.009,174.400 353.996,174.400 351.805 C 174.400 351.289,174.175 350.762,173.900 350.633 C 173.500 350.447,173.500 350.353,173.900 350.167 C 174.175 350.038,174.400 349.535,174.400 349.048 C 174.400 347.317,175.600 346.411,177.900 346.405 C 179.055 346.402,180.000 346.580,180.000 346.800 M264.800 346.725 C 264.800 346.904,265.422 347.295,266.183 347.593 C 267.173 347.982,267.637 348.457,267.814 349.263 C 267.950 349.884,268.228 350.494,268.431 350.619 C 268.939 350.933,268.910 358.400,268.400 358.400 C 268.180 358.400,268.000 358.662,268.000 358.982 C 268.000 361.899,260.737 362.745,259.584 359.962 C 259.320 359.323,258.945 358.800,258.751 358.800 C 258.558 358.800,258.400 358.080,258.400 357.200 C 258.400 356.320,258.220 355.600,258.000 355.600 C 257.780 355.600,257.600 354.970,257.600 354.200 C 257.600 353.430,257.780 352.800,258.000 352.800 C 258.220 352.800,258.400 352.170,258.400 351.400 C 258.400 350.630,258.580 350.000,258.800 350.000 C 259.020 350.000,259.200 349.730,259.200 349.400 C 259.200 349.070,259.560 348.440,260.000 348.000 C 260.440 347.560,261.070 347.200,261.400 347.200 C 261.730 347.200,262.000 347.020,262.000 346.800 C 262.000 346.580,262.630 346.400,263.400 346.400 C 264.170 346.400,264.800 346.546,264.800 346.725 M289.200 346.800 C 289.200 347.020,289.393 347.200,289.629 347.200 C 289.864 347.200,290.314 347.457,290.629 347.771 C 290.943 348.086,291.200 348.536,291.200 348.771 C 291.200 349.007,291.380 349.200,291.600 349.200 C 291.820 349.200,292.000 349.650,292.000 350.200 L 292.000 351.200 287.400 351.200 C 283.578 351.200,282.800 351.099,282.800 350.600 C 282.800 350.270,282.980 350.000,283.200 350.000 C 283.420 350.000,283.600 349.680,283.600 349.289 C 283.600 348.465,284.935 347.200,285.805 347.200 C 286.132 347.200,286.400 347.020,286.400 346.800 C 286.400 346.580,287.030 346.400,287.800 346.400 C 288.570 346.400,289.200 346.580,289.200 346.800 M354.400 346.800 C 354.400 347.020,354.757 347.200,355.192 347.200 C 355.704 347.200,356.074 347.554,356.236 348.200 C 356.374 348.750,356.647 349.200,356.843 349.200 C 357.040 349.200,357.200 349.650,357.200 350.200 L 357.200 351.200 352.600 351.200 C 348.778 351.200,348.000 351.099,348.000 350.600 C 348.000 350.270,348.180 350.000,348.400 350.000 C 348.620 350.000,348.800 349.652,348.800 349.227 C 348.800 348.802,349.160 348.340,349.600 348.200 C 350.040 348.060,350.400 347.778,350.400 347.573 C 350.400 347.368,350.670 347.200,351.000 347.200 C 351.330 347.200,351.600 347.020,351.600 346.800 C 351.600 346.580,352.230 346.400,353.000 346.400 C 353.770 346.400,354.400 346.580,354.400 346.800 M92.800 354.000 L 92.800 356.000 98.400 356.000 L 104.000 356.000 104.000 354.000 L 104.000 352.000 98.400 352.000 L 92.800 352.000 92.800 354.000 M155.600 354.000 L 155.600 356.000 161.200 356.000 L 166.800 356.000 166.800 354.000 L 166.800 352.000 161.200 352.000 L 155.600 352.000 155.600 354.000 M220.000 356.787 C 220.000 360.730,214.261 363.566,211.889 360.795 C 209.598 358.120,212.199 355.600,217.250 355.600 C 218.550 355.600,219.600 355.421,219.600 355.200 C 219.600 354.980,219.690 354.800,219.800 354.800 C 219.910 354.800,220.000 355.694,220.000 356.787 M182.800 365.600 C 182.800 365.820,183.070 366.000,183.400 366.000 C 183.730 366.000,184.000 366.255,184.000 366.567 C 184.000 366.878,184.225 367.225,184.500 367.336 C 184.847 367.477,184.869 367.640,184.571 367.870 C 184.335 368.051,184.019 368.532,183.869 368.938 C 183.719 369.344,183.237 369.770,182.798 369.885 C 182.359 369.999,182.000 370.252,182.000 370.447 C 182.000 370.641,181.550 370.800,181.000 370.800 C 180.450 370.800,180.000 370.980,180.000 371.200 C 180.000 371.426,178.867 371.600,177.400 371.600 C 175.933 371.600,174.800 371.426,174.800 371.200 C 174.800 370.980,174.530 370.800,174.200 370.800 C 173.870 370.800,173.600 370.632,173.600 370.427 C 173.600 370.222,173.240 369.940,172.800 369.800 C 171.696 369.450,171.730 367.563,172.854 366.788 C 173.323 366.465,173.908 365.982,174.154 365.715 C 174.711 365.109,182.800 365.002,182.800 365.600 " stroke="none" fill="#2c1c14" fill-rule="evenodd"></path><path id="path1" d="M151.400 35.608 C 150.520 35.806,149.215 36.086,148.500 36.229 C 147.785 36.373,147.200 36.650,147.200 36.845 C 147.200 37.040,146.840 37.200,146.400 37.200 C 145.960 37.200,145.600 37.360,145.600 37.557 C 145.600 37.753,145.150 38.026,144.600 38.164 C 144.050 38.302,143.600 38.592,143.600 38.808 C 143.600 39.023,143.410 39.200,143.177 39.200 C 142.605 39.200,138.800 42.978,138.800 43.547 C 138.800 43.796,138.638 44.000,138.440 44.000 C 138.241 44.000,137.746 44.809,137.340 45.799 C 136.933 46.788,136.465 47.598,136.300 47.599 C 136.135 47.599,136.000 48.014,136.000 48.520 C 136.000 49.026,135.775 49.665,135.500 49.940 C 135.141 50.299,135.000 52.263,135.000 56.887 C 135.000 61.689,135.128 63.376,135.500 63.500 C 135.775 63.592,136.000 64.102,136.000 64.633 C 136.000 65.165,136.180 65.600,136.400 65.600 C 136.620 65.600,136.800 65.855,136.800 66.168 C 136.800 66.881,138.098 69.194,138.500 69.197 C 138.665 69.199,138.800 69.388,138.800 69.617 C 138.800 70.141,141.603 73.200,142.082 73.200 C 142.277 73.200,142.873 73.636,143.406 74.170 C 143.939 74.703,145.011 75.369,145.788 75.650 C 146.565 75.931,147.200 76.284,147.200 76.435 C 147.200 76.721,148.123 76.943,152.316 77.661 C 155.065 78.133,162.400 77.770,162.400 77.163 C 162.400 76.963,162.850 76.800,163.400 76.800 C 163.950 76.800,164.400 76.642,164.400 76.450 C 164.400 76.258,164.950 75.990,165.623 75.855 C 166.296 75.721,167.076 75.383,167.357 75.105 C 167.638 74.827,168.370 74.240,168.984 73.800 C 170.528 72.694,172.000 71.234,172.000 70.809 C 172.000 70.614,172.360 70.340,172.800 70.200 C 173.240 70.060,173.600 69.598,173.600 69.173 C 173.600 68.748,173.777 68.400,173.992 68.400 C 174.208 68.400,174.498 67.950,174.636 67.400 C 174.774 66.850,175.047 66.400,175.243 66.400 C 175.440 66.400,175.600 66.040,175.600 65.600 C 175.600 65.160,175.780 64.800,176.000 64.800 C 176.220 64.800,176.400 64.386,176.400 63.880 C 176.400 63.374,176.592 62.768,176.827 62.533 C 177.088 62.272,177.253 59.967,177.253 56.600 C 177.253 53.233,177.088 50.928,176.827 50.667 C 176.592 50.432,176.400 49.826,176.400 49.320 C 176.400 48.814,176.220 48.400,176.000 48.400 C 175.780 48.400,175.600 48.040,175.600 47.600 C 175.600 47.160,175.440 46.800,175.243 46.800 C 175.047 46.800,174.762 46.305,174.611 45.700 C 174.267 44.333,168.402 38.516,167.016 38.168 C 166.457 38.028,166.000 37.753,166.000 37.557 C 166.000 37.360,165.640 37.200,165.200 37.200 C 164.760 37.200,164.400 37.020,164.400 36.800 C 164.400 36.580,163.986 36.400,163.480 36.400 C 162.974 36.400,162.359 36.199,162.113 35.953 C 161.545 35.385,153.540 35.126,151.400 35.608 " stroke="none" fill="#cc0c0c" fill-rule="evenodd"></path><path id="path2" d="M184.000 37.600 C 184.000 37.820,183.807 38.000,183.571 38.000 C 182.047 38.000,182.000 38.564,182.013 56.671 C 182.024 71.674,182.113 74.315,182.630 75.000 C 183.215 75.775,183.770 75.803,200.668 75.912 C 219.414 76.033,220.000 75.975,220.000 73.991 C 220.000 73.556,220.180 73.200,220.400 73.200 C 220.660 73.200,220.800 67.400,220.800 56.600 C 220.800 45.800,220.660 40.000,220.400 40.000 C 220.180 40.000,220.000 39.680,220.000 39.289 C 220.000 37.232,219.708 37.200,201.195 37.200 C 189.998 37.200,184.000 37.340,184.000 37.600 M228.070 38.126 C 227.204 39.047,227.200 39.132,227.200 56.656 L 227.200 74.261 228.126 75.130 C 229.047 75.995,229.143 76.000,246.237 76.000 C 264.668 76.000,265.200 75.943,265.200 73.977 C 265.200 73.550,265.380 73.200,265.600 73.200 C 265.860 73.200,266.000 67.400,266.000 56.600 C 266.000 45.800,265.860 40.000,265.600 40.000 C 265.380 40.000,265.200 39.661,265.200 39.246 C 265.200 37.277,264.480 37.200,246.084 37.200 L 228.939 37.200 228.070 38.126 M137.800 83.200 C 137.660 83.640,137.378 84.000,137.173 84.000 C 136.948 84.000,136.805 90.934,136.813 101.500 C 136.826 119.392,136.907 120.400,138.344 120.400 C 138.595 120.400,138.800 120.580,138.800 120.800 C 138.800 121.060,144.798 121.200,155.995 121.200 C 174.508 121.200,174.800 121.168,174.800 119.111 C 174.800 118.720,174.980 118.400,175.200 118.400 C 175.460 118.400,175.600 112.557,175.600 101.672 L 175.600 84.944 174.464 83.672 L 173.329 82.400 155.691 82.400 C 138.405 82.400,138.049 82.416,137.800 83.200 M182.900 83.177 L 182.000 83.928 182.000 101.956 L 182.000 119.985 183.000 120.236 C 183.550 120.374,184.000 120.647,184.000 120.843 C 184.000 121.047,191.311 121.200,201.000 121.200 C 211.220 121.200,218.000 121.052,218.000 120.828 C 218.000 120.623,218.405 120.398,218.900 120.328 C 219.478 120.246,219.846 119.878,219.928 119.300 C 219.998 118.805,220.223 118.400,220.428 118.400 C 220.651 118.400,220.800 111.773,220.800 101.800 C 220.800 91.000,220.660 85.200,220.400 85.200 C 220.180 85.200,220.000 84.880,220.000 84.489 C 220.000 82.430,219.721 82.399,201.095 82.413 C 184.775 82.426,183.749 82.469,182.900 83.177 M137.500 128.433 C 136.855 129.139,136.801 130.581,136.813 146.700 C 136.826 164.592,136.907 165.600,138.344 165.600 C 138.595 165.600,138.800 165.780,138.800 166.000 C 138.800 166.260,144.733 166.400,155.800 166.400 C 166.020 166.400,172.800 166.252,172.800 166.028 C 172.800 165.823,173.205 165.598,173.700 165.528 C 174.278 165.446,174.646 165.078,174.728 164.500 C 174.798 164.005,175.023 163.600,175.228 163.600 C 175.451 163.600,175.600 156.924,175.600 146.872 L 175.600 130.144 174.464 128.872 L 173.329 127.600 155.764 127.633 C 138.988 127.665,138.169 127.701,137.500 128.433 M182.870 128.526 C 181.902 129.555,181.446 164.400,182.400 164.400 C 182.620 164.400,182.800 164.670,182.800 165.000 C 182.800 165.330,183.070 165.600,183.400 165.600 C 183.730 165.600,184.000 165.780,184.000 166.000 C 184.000 166.260,189.933 166.400,201.000 166.400 C 211.220 166.400,218.000 166.252,218.000 166.028 C 218.000 165.823,218.405 165.598,218.900 165.528 C 219.478 165.446,219.846 165.078,219.928 164.500 C 219.998 164.005,220.223 163.600,220.428 163.600 C 220.651 163.600,220.800 156.973,220.800 147.000 C 220.800 136.200,220.660 130.400,220.400 130.400 C 220.180 130.400,220.000 130.080,220.000 129.689 C 220.000 127.631,219.720 127.600,201.065 127.600 L 183.739 127.600 182.870 128.526 M227.896 128.593 C 227.245 129.488,227.200 130.901,227.296 147.281 L 227.400 165.000 228.300 165.395 C 228.795 165.612,229.200 165.927,229.200 166.095 C 229.200 166.263,236.850 166.400,246.200 166.400 C 257.267 166.400,263.200 166.260,263.200 166.000 C 263.200 165.780,263.557 165.600,263.992 165.600 C 264.504 165.600,264.874 165.246,265.036 164.600 C 265.174 164.050,265.447 163.600,265.643 163.600 C 265.846 163.600,266.000 156.454,266.000 147.000 C 266.000 136.200,265.860 130.400,265.600 130.400 C 265.380 130.400,265.200 130.080,265.200 129.689 C 265.200 127.627,264.939 127.599,246.095 127.613 L 228.600 127.625 227.896 128.593 M137.700 173.577 L 136.800 174.328 136.800 191.898 L 136.800 209.468 137.997 210.534 L 139.193 211.600 155.997 211.600 C 165.570 211.600,172.800 211.447,172.800 211.243 C 172.800 211.047,173.250 210.774,173.800 210.636 C 174.446 210.474,174.800 210.104,174.800 209.592 C 174.800 209.157,174.980 208.800,175.200 208.800 C 175.460 208.800,175.600 202.923,175.600 191.969 L 175.600 175.138 174.431 173.969 L 173.262 172.800 155.931 172.813 C 139.576 172.826,138.549 172.869,137.700 173.577 M182.900 173.577 L 182.000 174.328 182.000 191.964 C 182.000 203.455,182.139 209.600,182.400 209.600 C 182.620 209.600,182.800 209.870,182.800 210.200 C 182.800 210.530,183.070 210.800,183.400 210.800 C 183.730 210.800,184.000 210.980,184.000 211.200 C 184.000 211.460,189.933 211.600,201.000 211.600 C 211.220 211.600,218.000 211.452,218.000 211.228 C 218.000 211.023,218.405 210.798,218.900 210.728 C 219.478 210.646,219.846 210.278,219.928 209.700 C 219.998 209.205,220.223 208.800,220.428 208.800 C 220.651 208.800,220.800 202.173,220.800 192.200 C 220.800 181.400,220.660 175.600,220.400 175.600 C 220.180 175.600,220.000 175.280,220.000 174.889 C 220.000 172.830,219.721 172.799,201.095 172.813 C 184.775 172.826,183.749 172.869,182.900 173.577 " stroke="none" fill="#349c34" fill-rule="evenodd"></path></g></svg>