<?xml version="1.0" encoding="utf-8"?>
<!-- Generator: Adobe Illustrator 15.0.0, SVG Export Plug-In . SVG Version: 6.00 Build 0)  -->
<!DOCTYPE svg PUBLIC "-//W3C//DTD SVG 1.1//EN" "http://www.w3.org/Graphics/SVG/1.1/DTD/svg11.dtd">
<svg version="1.1" id="Layer_2" xmlns="http://www.w3.org/2000/svg" xmlns:xlink="http://www.w3.org/1999/xlink" x="0px" y="0px"
	 width="368.504px" height="198.425px" viewBox="0 0 368.504 198.425" enable-background="new 0 0 368.504 198.425"
	 xml:space="preserve">
<g>
	<g>
		<circle fill="#004C98" cx="99.144" cy="99.242" r="32.213"/>
		<path fill="#C4161C" d="M102.821,91.411h-3.467h-3.963c-0.205-0.801-0.314-1.641-0.314-2.506c0-0.887,0.115-1.744,0.33-2.563
			c0.002,0,0.004-0.002,0.006-0.004c0.396-1.504,1.129-2.873,2.118-4.016c-0.101,0.16-0.161,0.348-0.161,0.551
			c0,0.371,0.192,0.693,0.481,0.881c0.41-0.627,0.75-1.305,1.015-2.018c0.032-0.088,0.062-0.176,0.092-0.266
			c0.055-0.162,0.107-0.324,0.154-0.49c0.195-0.689,0.323-1.408,0.366-2.151c0.003,0.005,0.007,0.009,0.01,0.014
			c1.017,1.297,1.715,2.854,1.995,4.549c0.003,0.006,0.006,0.01,0.01,0.016c0.086,0.531,0.134,1.076,0.134,1.633
			c0,0.189-0.007,0.377-0.017,0.564c-0.037,0.666-0.138,1.313-0.297,1.938c0.15,0.084,0.322,0.137,0.508,0.137
			c0.579,0,1.048-0.469,1.048-1.047c0-0.02-0.004-0.037-0.005-0.057c0.177,0.748,0.271,1.525,0.271,2.328
			C103.136,89.771,103.026,90.61,102.821,91.411z"/>
		<g>
			<path fill="#004C98" d="M69.875,123.863c-0.353,0.309-0.429,0.836-0.118,1.189c0.316,0.361,0.841,0.35,1.193,0.039
				c0.361-0.316,0.428-0.824,0.111-1.187C70.752,123.552,70.236,123.544,69.875,123.863z"/>
			<path fill="#004C98" d="M63.336,112.605l-3.91,1.736l0.621,1.404l3.788-1.681c0.701-0.312,1.298-0.407,1.543,0.146
				c0.245,0.554-0.228,0.933-0.93,1.242l-3.787,1.68l0.625,1.416l3.911-1.733c1.376-0.61,2.215-1.655,1.543-3.176
				C66.067,112.119,64.704,112,63.336,112.605z"/>
			<polygon fill="#004C98" points="64.822,108.863 60.824,109.916 60.816,109.886 64.44,107.343 64.041,105.75 57.457,107.414 
				57.78,108.701 61.837,107.646 61.844,107.673 58.162,110.22 58.573,111.861 65.157,110.197 			"/>
			<polygon fill="#004C98" points="63.688,102.753 56.948,103.57 57.131,105.107 63.872,104.291 			"/>
			<polygon fill="#004C98" points="63.511,98.435 56.693,96.794 56.721,98.466 61.704,99.357 61.704,99.376 56.751,100.32 
				56.779,102.06 63.543,100.386 			"/>
			<polygon fill="#004C98" points="64.138,92.362 62.78,92.169 62.511,94.081 61.058,93.874 61.292,92.218 60.038,92.038 
				59.805,93.694 58.485,93.507 58.739,91.706 57.4,91.515 56.94,94.771 63.662,95.731 			"/>
			<path fill="#004C98" d="M64.81,89.698l-2.595-0.762l0.127-0.434l2.851-0.115l0.455-1.559l-3.233,0.264
				c-0.023-0.469-0.412-1.123-1.378-1.406c-1.297-0.381-2.176,0.162-2.544,1.428l-0.611,2.094l6.515,1.91L64.81,89.698z
				 M61.302,88.198l-0.126,0.434l-1.647-0.484l0.135-0.461c0.1-0.342,0.368-0.713,1.03-0.518
				C61.282,87.341,61.423,87.782,61.302,88.198z"/>
			<path fill="#004C98" d="M65.755,81.696c-1.071-0.494-1.856,0.043-2.396,0.482c-0.481,0.381-0.767,0.566-1.15,0.389
				c-0.453-0.209-0.499-0.59-0.354-0.904c0.137-0.297,0.412-0.529,0.753-0.627l-0.694-1.197c-0.548,0.18-1.036,0.621-1.346,1.295
				c-0.413,0.898-0.291,2.172,1.076,2.803c1.026,0.475,1.702,0.107,2.342-0.412c0.507-0.41,0.839-0.607,1.239-0.422
				c0.393,0.182,0.507,0.551,0.351,0.893c-0.165,0.357-0.521,0.648-0.919,0.781l0.715,1.199c0.543-0.195,1.162-0.691,1.504-1.434
				C67.34,83.528,67.087,82.312,65.755,81.696z"/>
			
				<rect x="62.257" y="78.402" transform="matrix(0.8579 0.5139 -0.5139 0.8579 50.0184 -22.4845)" fill="#004C98" width="6.794" height="1.545"/>
			<path fill="#004C98" d="M69.969,73.186c-1.646-1.291-3.227-1.419-4.427,0.116l-1.177,1.506l5.349,4.193l1.176-1.507
				C72.084,75.966,71.586,74.453,69.969,73.186z M69.844,76.651l-0.229,0.295l-3.233-2.534l0.23-0.295
				c0.455-0.583,1.333-0.554,2.406,0.287C70.052,75.215,70.3,76.068,69.844,76.651z"/>
			<path fill="#004C98" d="M70.956,67.464l-1.41,1.316l3.419,6.108l1.123-1.049l-0.64-1.098l1.115-1.041l1.047,0.718l1.173-1.095
				L70.956,67.464z M72.765,71.752l-1.546-2.51l0.027-0.026l2.368,1.744L72.765,71.752z"/>
			<path fill="#004C98" d="M79.117,69.707c1.61-1.079,1.608-2.674,0.47-4.385c-1.159-1.743-2.619-2.361-4.237-1.277l-1.587,1.063
				l3.768,5.661L79.117,69.707z M76.11,65.154c0.614-0.411,1.438-0.107,2.193,1.028c0.729,1.095,0.698,1.983,0.084,2.395
				l-0.311,0.207L75.8,65.362L76.11,65.154z"/>
			<polygon fill="#004C98" points="85.628,66.143 85.043,64.9 83.301,65.724 82.675,64.394 84.184,63.679 83.645,62.532 
				82.136,63.246 81.568,62.037 83.207,61.261 82.631,60.035 79.665,61.438 82.559,67.595 			"/>
			<polygon fill="#004C98" points="90.857,60.34 89.288,60.746 88.943,59.407 90.65,58.964 90.303,57.615 87.101,58.444 
				88.8,65.032 90.304,64.643 89.627,62.018 91.187,61.616 			"/>
			<polygon fill="#004C98" points="94.351,62.468 94.163,61.009 95.818,60.797 95.656,59.539 94.001,59.75 93.831,58.425 
				95.629,58.196 95.456,56.851 92.204,57.267 93.07,64.017 96.437,63.586 96.262,62.223 			"/>
			<path fill="#004C98" d="M99.747,56.731l-1.908-0.041l-0.146,6.804l1.907,0.041c1.937,0.042,2.847-1.266,2.891-3.321
				C102.536,58.119,101.692,56.773,99.747,56.731z M99.648,62.191l-0.373-0.009l0.088-4.113l0.374,0.009
				c0.738,0.016,1.24,0.737,1.211,2.103C100.92,61.497,100.387,62.207,99.648,62.191z"/>
			<polygon fill="#004C98" points="107.207,62.998 105.308,62.672 105.555,61.223 107.199,61.504 107.412,60.253 105.768,59.973 
				105.992,58.656 107.778,58.96 108.006,57.625 104.773,57.074 103.631,63.781 106.976,64.352 			"/>
			<path fill="#004C98" d="M110.428,62.513l0.429,0.139l0.037,2.86l1.542,0.498l-0.175-3.248c0.467-0.011,1.131-0.382,1.439-1.343
				c0.415-1.289-0.104-2.184-1.353-2.589l-2.072-0.669l-2.083,6.477l1.405,0.455L110.428,62.513z M111.287,59.842l0.456,0.147
				c0.337,0.109,0.701,0.388,0.489,1.046c-0.188,0.586-0.633,0.715-1.044,0.583l-0.429-0.139L111.287,59.842z"/>
			<path fill="#004C98" d="M114.461,66.978l0.812-0.976l1.356,0.698l-0.317,1.23l1.424,0.734l1.642-6.806l-1.714-0.883l-4.567,5.297
				L114.461,66.978z M117.799,62.71l0.034,0.019l-0.832,2.823l-1.032-0.531L117.799,62.71z"/>
			<polygon fill="#004C98" points="121.224,71.153 122.04,69.99 120.559,68.943 123.647,64.542 122.377,63.644 118.472,69.21 			"/>
			<path fill="#004C98" d="M129.887,69.957l-1.305-1.396l-4.957,4.65l1.305,1.396c1.325,1.417,2.895,1.156,4.393-0.249
				C130.849,72.926,131.218,71.381,129.887,69.957z M128.267,73.228c-0.959,0.9-1.839,1.014-2.344,0.473l-0.255-0.273l2.996-2.811
				l0.256,0.273C129.425,71.43,129.261,72.295,128.267,73.228z"/>
			<polygon fill="#004C98" points="131.689,78.634 132.73,77.913 131.781,76.538 132.878,75.778 133.909,77.271 135.021,76.5 
				133.155,73.798 127.569,77.667 129.501,80.464 130.629,79.683 129.532,78.094 130.74,77.258 			"/>
			<path fill="#004C98" d="M134.004,83.825l0.261,0.609c0.397,0.928,1.415,1.6,2.808,1c1.488-0.639,1.517-1.865,1.135-2.756
				l-0.832-1.943l-6.238,2.68l0.594,1.387L134.004,83.825z M136.779,82.634l0.192,0.449c0.167,0.389,0.062,0.801-0.494,1.039
				c-0.537,0.23-0.969,0.051-1.136-0.338l-0.192-0.451L136.779,82.634z"/>
			<polygon fill="#004C98" points="133.976,91.522 135.298,91.157 134.785,89.294 136.2,88.903 136.643,90.517 137.863,90.179 
				137.42,88.565 138.705,88.21 139.187,89.962 140.49,89.601 139.619,86.431 133.074,88.243 			"/>
			<polygon fill="#004C98" points="134.678,96.085 136.082,95.884 135.825,94.085 141.139,93.317 140.92,91.776 134.202,92.745 			
				"/>
			<path fill="#004C98" d="M138.217,96.81c-2.158-0.01-3.613,0.983-3.64,2.596c-0.026,1.615,1.396,2.621,3.555,2.63
				c2.148,0.01,3.574-0.981,3.601-2.598C141.759,97.806,140.365,96.819,138.217,96.81z M138.157,100.46
				c-1.18-0.004-2.085-0.355-2.074-1.047c0.012-0.701,0.929-1.033,2.108-1.029c1.18,0.006,2.066,0.348,2.055,1.049
				C140.234,100.125,139.337,100.466,138.157,100.46z"/>
			<polygon fill="#004C98" points="139.905,104.617 134.481,103.8 134.26,105.292 139.684,106.109 139.5,107.345 140.789,107.541 
				141.379,103.576 140.09,103.38 			"/>
			<path fill="#004C98" d="M133.701,107.99l1.113,0.605l-0.417,1.471l-1.266-0.07l-0.438,1.543l6.979,0.281l0.527-1.859
				l-6.079-3.451L133.701,107.99z M135.911,109.089l2.618,1.346l-0.011,0.037l-2.925-0.266L135.911,109.089z"/>
			<path fill="#004C98" d="M136.709,114.39c-1.029-0.469-1.703-0.102-2.341,0.42c-0.504,0.414-0.836,0.611-1.237,0.428
				c-0.393-0.18-0.509-0.551-0.354-0.891c0.163-0.359,0.517-0.65,0.915-0.785l-0.721-1.197c-0.542,0.197-1.159,0.697-1.497,1.439
				c-0.461,1.016-0.203,2.232,1.132,2.842c1.073,0.49,1.855-0.049,2.394-0.49c0.479-0.383,0.765-0.57,1.148-0.395
				c0.454,0.207,0.502,0.588,0.358,0.904c-0.135,0.297-0.409,0.528-0.75,0.629l0.7,1.195c0.547-0.183,1.033-0.628,1.339-1.3
				C138.206,116.289,138.078,115.017,136.709,114.39z"/>
			<path fill="#004C98" d="M127.362,123.748c-0.308,0.357-0.244,0.869,0.118,1.187c0.354,0.31,0.886,0.312,1.193-0.045
				c0.313-0.363,0.229-0.882-0.126-1.188C128.186,123.382,127.676,123.386,127.362,123.748z"/>
			<path fill="#004C98" d="M82.703,133.234c0.662-1.182,0.331-2.162-0.813-2.807l-1.896-1.07l-3.322,5.936l1.286,0.726l1.323-2.363
				l0.394,0.222l-0.529,2.813l1.411,0.795l0.473-3.219C81.487,134.347,82.211,134.115,82.703,133.234z M81.341,132.566
				c-0.3,0.535-0.761,0.574-1.137,0.361l-0.393-0.221l0.84-1.5l0.418,0.233C81.378,131.617,81.679,131.962,81.341,132.566z"/>
			<path fill="#004C98" d="M86.768,132.484c-0.923-0.354-2.183-0.145-2.719,1.264c-0.403,1.062,0.006,1.711,0.565,2.316
				c0.444,0.479,0.66,0.797,0.504,1.211c-0.154,0.404-0.516,0.543-0.864,0.41c-0.367-0.141-0.681-0.477-0.84-0.867l-1.146,0.797
				c0.229,0.529,0.766,1.115,1.527,1.406c1.039,0.398,2.233,0.063,2.757-1.311c0.421-1.105-0.167-1.854-0.64-2.363
				c-0.411-0.457-0.615-0.73-0.465-1.125c0.179-0.467,0.555-0.539,0.877-0.416c0.305,0.117,0.555,0.377,0.674,0.711l1.146-0.775
				C87.929,133.207,87.457,132.748,86.768,132.484z"/>
			
				<rect x="88.114" y="137.178" transform="matrix(0.967 0.2546 -0.2546 0.967 38.0089 -18.13)" fill="#004C98" width="1.841" height="1.143"/>
			<path fill="#004C98" d="M94.192,134.554l-2.013-0.283l-0.951,6.738l2.23,0.314c0.959,0.135,2.063-0.205,2.265-1.644
				c0.134-0.94-0.345-1.533-0.839-1.738l0.003-0.021c0.496-0.153,0.933-0.567,1.044-1.356
				C96.138,135.109,95.027,134.671,94.192,134.554z M94.301,139.335c-0.075,0.533-0.464,0.75-0.91,0.688l-0.569-0.08l0.23-1.639
				l0.551,0.078C93.992,138.437,94.386,138.736,94.301,139.335z M94.558,136.625c-0.074,0.533-0.455,0.693-0.826,0.642l-0.521-0.074
				l0.205-1.455l0.513,0.072C94.317,135.863,94.632,136.101,94.558,136.625z"/>
			<path fill="#004C98" d="M101.931,136.904c-0.019-1.355-0.795-2.035-2.107-2.012l-2.177,0.035l0.092,6.803l1.477-0.023
				l-0.036-2.711l0.45-0.008l0.947,2.695l1.62-0.025l-1.201-3.018C101.435,138.478,101.944,137.914,101.931,136.904z
				 M99.614,137.904l-0.45,0.006l-0.023-1.719l0.479-0.008c0.354-0.006,0.787,0.141,0.797,0.832
				C100.426,137.63,100.046,137.896,99.614,137.904z"/>
			<path fill="#004C98" d="M104.41,134.523l-0.438,6.986l1.511-0.268l0.059-1.269l1.501-0.267l0.49,1.172l1.577-0.278l-2.801-6.414
				L104.41,134.523z M105.503,138.769l0.063-2.947l0.038-0.008l1.042,2.754L105.503,138.769z"/>
			<path fill="#004C98" d="M111.862,135.531c-0.606-0.088-0.937-0.17-1.072-0.57c-0.159-0.475,0.086-0.77,0.413-0.881
				c0.309-0.104,0.667-0.063,0.971,0.119l0.393-1.33c-0.507-0.275-1.162-0.328-1.861-0.092c-0.937,0.316-1.776,1.281-1.296,2.711
				c0.361,1.074,1.09,1.314,1.906,1.426c0.646,0.086,1.017,0.193,1.157,0.613c0.138,0.41-0.052,0.748-0.406,0.867
				c-0.373,0.127-0.828,0.066-1.198-0.133l-0.378,1.346c0.513,0.262,1.299,0.373,2.071,0.111c1.054-0.357,1.763-1.377,1.295-2.771
				C113.479,135.826,112.551,135.623,111.862,135.531z"/>
			<polygon fill="#004C98" points="113.352,131.945 116.198,138.125 117.6,137.476 114.753,131.294 			"/>
			<polygon fill="#004C98" points="120.09,134.507 117.359,129.873 116.022,130.667 119.475,136.525 122.372,134.804 
				121.649,133.58 			"/>
		</g>
		<g>
			<path fill="#FFFFFF" d="M121.668,97.886c-0.453,0-0.897-0.033-1.333-0.094c2.858-2.135,5.287-5.737,5.287-8.938
				c0-0.611-0.044-1.205-0.125-1.779c-0.709-5.035-4.42-8.585-9.366-8.601v-0.001c-0.005,0-0.011,0-0.016,0
				c-0.005,0-0.011,0-0.016,0v0.001c-4.946,0.016-8.657,3.566-9.366,8.601c-0.081,0.574-0.125,1.168-0.125,1.779
				c0,3.201,2.429,6.803,5.287,8.938c-0.436,0.061-0.88,0.094-1.333,0.094c-1.231,0-2.407-0.232-3.491-0.652h-0.167V99.5h8.305
				v-0.02c0.014,0.004,0.027,0.008,0.041,0.012c-2.005-1.33-4.374-4.45-4.847-5.292c-0.859-1.529-1.368-3.422-1.368-5.473
				c0-5.074,3.113-9.189,6.954-9.189c0.019,0,0.072,0,0.126,0c0.054,0,0.107,0,0.126,0c3.841,0,6.954,4.115,6.954,9.189
				c0,2.051-0.509,3.943-1.368,5.473c-0.474,0.842-2.842,3.961-4.847,5.292c0.014-0.004,0.027-0.008,0.041-0.012v0.02h8.305v-2.266
				h-0.167C124.075,97.654,122.899,97.886,121.668,97.886z"/>
			<path fill="#FFFFFF" d="M88.505,94.907l-5.971-17.314l-5.97,17.31c-0.83,1.906-2.228,3.51-3.986,4.584h1.833h0.572h3.397h0.143
				h1.745l-1.506-2.008l0.755-2.766h6.032l0.754,2.766l-1.514,2.008h1.896h0.36h3.036h1.048h1.358
				C90.731,98.414,89.335,96.813,88.505,94.907z M79.997,92.7l2.537-10.654L85.07,92.7H79.997z"/>
		</g>
		<path fill="#F6D200" d="M100.524,90.253c-0.01,0.025-0.019,0.051-0.027,0.07c-0.002-0.016-0.003-0.031-0.005-0.047l0,0
			c-0.052-0.354-0.08-0.715-0.08-1.084c0-0.525,0.193-1.709,0.193-1.709c0.077-0.434,0.125-0.877,0.125-1.332
			c0-1.424-0.403-2.748-1.088-3.885c-0.093,1.859-0.985,3.602-1.93,4.615c-0.183-0.266-0.351-0.541-0.499-0.828
			c-0.232,0.553-0.4,1.141-0.496,1.75c0,0.002-0.001,0.002-0.002,0.004c-0.003,0.02-0.004,0.039-0.007,0.059
			c-0.007,0.043-0.017,0.084-0.021,0.127h0.005c-0.043,0.32-0.075,0.645-0.075,0.977c0,0.855,0.149,1.676,0.411,2.441h3.981
			c0.383-0.682,0.655-1.43,0.812-2.223c0.025-0.164,0.048-0.316,0.068-0.459C101.532,89.317,101.069,89.835,100.524,90.253z"/>
		<path fill="#A2D5ED" d="M86.353,86.761l0.875,2.535l7.229-0.377c0-0.006,0-0.01,0-0.014c0-0.383,0.025-0.762,0.065-1.141
			L86.353,86.761z"/>
		<path fill="#A2D5ED" d="M84.19,70.705L95.54,84.23c0.25-0.514,0.54-1.006,0.868-1.473l-7.215-14.16
			C87.456,69.161,85.784,69.868,84.19,70.705z"/>
		<path fill="#A2D5ED" d="M109.657,88.728c0,0.166,0.007,0.332,0.014,0.496l12.84,0.674c0.039-0.385,0.063-0.775,0.063-1.17
			c0-1.137-0.166-2.223-0.464-3.217l-12.327,1.514C109.7,87.575,109.657,88.146,109.657,88.728z"/>
		<path fill="#A2D5ED" d="M126.243,88.854c0,0.41-0.037,0.822-0.103,1.232l3.956,0.207c-0.552-1.912-1.276-3.75-2.155-5.498
			l-2.254,0.275c0.188,0.611,0.331,1.25,0.425,1.918C126.199,87.606,126.243,88.233,126.243,88.854z"/>
		<path fill="#A2D5ED" d="M105.994,89.03c-0.002-0.059-0.007-0.117-0.007-0.176c0-0.457,0.031-0.916,0.079-1.373l-2.372,0.291
			c0.04,0.377,0.063,0.754,0.063,1.133c0,0.002,0,0.006,0,0.008L105.994,89.03z"/>
		<path fill="#A2D5ED" d="M109.086,68.594l-7.132,13.997c0.044,0.186,0.085,0.371,0.118,0.561l0.011,0.014l0.023,0.145
			c0.082,0.504,0.122,1.012,0.133,1.516l11.851-14.125C112.496,69.864,110.823,69.158,109.086,68.594z"/>
		<polygon fill="#A2D5ED" points="82.917,86.339 82.173,86.247 81.373,89.603 83.666,89.483 		"/>
		<path fill="#A2D5ED" d="M90.42,96.86l3.573-3.332v-0.48v-0.9l-4.581,3.207C89.699,95.892,90.04,96.394,90.42,96.86z"/>
		<path fill="#A2D5ED" d="M115.209,100.121h-3.846l4.542,4.236h2.089h0.652l-0.032,0.652c-0.028,0.58-0.086,1.154-0.165,1.719
			l8.819,8.225c0.908-1.621,1.68-3.328,2.3-5.106l-13.888-9.726H115.209z"/>
		<path fill="#A2D5ED" d="M108.205,94.886l-3.909-2.736v0.898v0.482l3.55,3.311c0.794,0.25,1.613,0.395,2.448,0.418
			C109.547,96.563,108.832,95.759,108.205,94.886z"/>
		<path fill="#A2D5ED" d="M84.79,100.109h-1.246l0.75-0.996l0.278-0.369L68.72,109.845c0.619,1.779,1.392,3.486,2.299,5.107
			l8.818-8.226c-0.078-0.563-0.136-1.14-0.164-1.72l-0.033-0.651h0.653h2.089l4.555-4.248h-0.25L84.79,100.109L84.79,100.109z"/>
		<path fill="#A2D5ED" d="M79.025,85.862l-8.68-1.066c-0.878,1.748-1.603,3.586-2.155,5.498l9.478-0.496L79.025,85.862z"/>
		<g>
			<rect x="94.614" y="91.688" fill="#FFFFFF" width="9.061" height="1.359"/>
			<rect x="95.621" y="93.552" fill="#FFFFFF" width="7.047" height="1.158"/>
			<polygon fill="#FFFFFF" points="99.893,125.417 99.136,124.542 98.379,125.417 98.389,126.773 99.898,126.773 			"/>
			<rect x="98.741" y="129.822" fill="#FFFFFF" width="0.807" height="0.379"/>
			<rect x="97.635" y="127.281" fill="#FFFFFF" width="3.02" height="0.881"/>
			<polygon fill="#FFFFFF" points="98.39,128.994 98.745,129.32 99.544,129.32 99.899,128.994 99.899,128.666 98.39,128.666 			"/>
			<path fill="#FFFFFF" d="M97.695,104.357h2.898c0.225-3.068,0.648-6.209,1.265-9.143H96.43
				C97.046,98.148,97.471,101.289,97.695,104.357z"/>
		</g>
		<g>
			<path fill="#B2D235" d="M117.665,121.562c-1.056,1.414-2.735,2.332-4.635,2.332c-1.895,0-3.571-0.914-4.627-2.322
				c-1.056,1.414-2.735,2.332-4.634,2.332s-3.579-0.918-4.635-2.332c-1.057,1.408-2.732,2.322-4.627,2.322
				c-1.899,0-3.579-0.918-4.635-2.332c-1.056,1.406-2.731,2.322-4.627,2.322c-1.898,0-3.579-0.92-4.634-2.332
				c-0.666,0.887-1.579,1.578-2.639,1.967c0.58,0.506,1.178,0.992,1.793,1.455c0.313-0.271,0.597-0.574,0.846-0.904
				c1.055,1.412,2.735,2.33,4.634,2.33c1.896,0,3.571-0.914,4.628-2.32c1.055,1.412,2.734,2.33,4.634,2.33
				c1.895,0,3.57-0.914,4.627-2.32c1.055,1.412,2.735,2.332,4.635,2.332c1.898,0,3.578-0.92,4.634-2.332
				c1.056,1.406,2.732,2.32,4.627,2.32c1.898,0,3.579-0.918,4.635-2.33c0.248,0.33,0.532,0.633,0.844,0.904
				c0.615-0.463,1.214-0.949,1.793-1.455C119.244,123.14,118.331,122.451,117.665,121.562z"/>
			<path fill="#B2D235" d="M117.665,116.529c-1.056,1.414-2.735,2.332-4.635,2.332c-1.895,0-3.571-0.914-4.627-2.32
				c-1.056,1.412-2.735,2.33-4.634,2.33s-3.579-0.918-4.635-2.33c-1.057,1.406-2.732,2.32-4.627,2.32
				c-1.899,0-3.579-0.918-4.635-2.332c-1.056,1.408-2.731,2.322-4.627,2.322c-1.898,0-3.579-0.92-4.634-2.332
				c-1.057,1.406-2.732,2.322-4.627,2.322c-1.125,0-2.172-0.326-3.061-0.883c0.853,1.19,1.784,2.321,2.787,3.385
				c0.091,0.004,0.181,0.014,0.273,0.014c1.895,0,3.57-0.914,4.627-2.32c1.055,1.412,2.735,2.33,4.634,2.33
				c1.896,0,3.571-0.914,4.627-2.32c1.056,1.412,2.735,2.33,4.635,2.33c1.895,0,3.57-0.914,4.627-2.319
				c1.056,1.411,2.735,2.332,4.635,2.332c1.898,0,3.578-0.921,4.634-2.332c1.056,1.405,2.732,2.319,4.627,2.319
				c1.899,0,3.579-0.918,4.635-2.33c1.056,1.406,2.732,2.32,4.626,2.32c0.094,0,0.184-0.01,0.275-0.014
				c1.005-1.064,1.938-2.195,2.791-3.387c-0.89,0.557-1.938,0.885-3.066,0.885C120.397,118.851,118.721,117.937,117.665,116.529z"/>
		</g>
		<path fill="#FAA61A" d="M86.535,118.064c1.122-0.289,2.12-0.947,2.842-1.908l0.497-0.662l0.497,0.664
			c0.988,1.322,2.496,2.082,4.137,2.082c1.636,0,3.142-0.756,4.13-2.072l0.498-0.664l0.497,0.664
			c0.988,1.324,2.496,2.082,4.137,2.082c1.64,0,3.147-0.758,4.136-2.082l0.497-0.664l0.498,0.664
			c0.722,0.961,1.719,1.617,2.841,1.906c3.63-3.258,5.994-7.898,6.253-13.096H80.293C80.552,110.169,82.911,114.806,86.535,118.064z
			"/>
	</g>
	<g>
		<path fill="#004C98" d="M198.33,100.929V85.883h5.789v14.892c0,4.29,2.148,6.508,5.684,6.508c3.531,0,5.678-2.146,5.678-6.314
			V85.883h5.791v14.855c0,7.979-4.475,11.889-11.545,11.889C202.66,112.625,198.33,108.678,198.33,100.929z"/>
		<path fill="#004C98" d="M223.943,85.883h20.051v5.27H229.74v5.605h12.555v5.259H229.74v10.195h-5.797V85.883L223.943,85.883z"/>
		<path fill="#004C98" d="M246.668,85.883h10.754c6.279,0,10.078,3.723,10.078,9.104v0.075c0,6.088-4.736,9.257-10.643,9.257h-4.402
			v7.896h-5.787V85.883z M257.043,99.164c2.896,0,4.59-1.734,4.59-3.99V95.1c0-2.598-1.807-3.985-4.703-3.985h-4.475v8.049H257.043z
			"/>
		<path fill="#004C98" d="M270.174,85.883h19.859v5.152h-14.107v5.339h12.408v5.157h-12.408v5.53h14.293v5.151h-20.045V85.883z"/>
		<path fill="#004C98" d="M292.893,85.883h5.791v21.068h13.127v5.264h-18.918V85.883z"/>
	</g>
	<rect x="169.742" y="42.615" fill="#004C98" width="0.581" height="113.195"/>
</g>
</svg>
