<?xml version="1.0" encoding="utf-8"?>
<!-- Generator: Adobe Illustrator 15.0.0, SVG Export Plug-In . SVG Version: 6.00 Build 0)  -->
<!DOCTYPE svg PUBLIC "-//W3C//DTD SVG 1.1//EN" "http://www.w3.org/Graphics/SVG/1.1/DTD/svg11.dtd">
<svg version="1.1" id="Layer_1" xmlns="http://www.w3.org/2000/svg" xmlns:xlink="http://www.w3.org/1999/xlink" x="0px" y="0px"
	 width="425.197px" height="425.197px" viewBox="0 0 425.197 425.197" enable-background="new 0 0 425.197 425.197"
	 xml:space="preserve">
<g>
	<g>
		<circle fill="#004C98" cx="212.39" cy="212.692" r="96.638"/>
		<path fill="#C4161C" d="M223.422,189.205h-10.397h-11.888c-0.617-2.404-0.944-4.925-0.944-7.521c0-2.656,0.345-5.229,0.988-7.685
			c0.006-0.004,0.012-0.007,0.018-0.011c1.19-4.516,3.388-8.622,6.355-12.05c-0.302,0.481-0.481,1.045-0.481,1.655
			c0,1.108,0.576,2.078,1.443,2.638c1.229-1.881,2.251-3.91,3.043-6.051c0.099-0.263,0.187-0.53,0.276-0.797
			c0.163-0.484,0.321-0.974,0.461-1.469c0.586-2.07,0.973-4.227,1.1-6.454c0.011,0.014,0.021,0.026,0.03,0.04
			c3.049,3.894,5.146,8.56,5.984,13.648c0.009,0.016,0.019,0.031,0.028,0.046c0.26,1.597,0.4,3.232,0.4,4.902
			c0,0.568-0.019,1.131-0.05,1.692c-0.109,1.995-0.412,3.938-0.891,5.812c0.452,0.254,0.969,0.412,1.524,0.412
			c1.736,0,3.145-1.409,3.145-3.145c0-0.059-0.015-0.111-0.018-0.169c0.53,2.242,0.815,4.579,0.815,6.983
			C224.366,184.28,224.038,186.801,223.422,189.205z"/>
		<g>
			<path fill="#004C98" d="M124.585,286.554c-1.06,0.93-1.286,2.51-0.355,3.57c0.949,1.085,2.521,1.048,3.581,0.115
				c1.082-0.949,1.284-2.471,0.335-3.553C127.215,285.622,125.667,285.603,124.585,286.554z"/>
			<path fill="#004C98" d="M104.967,252.784l-11.73,5.205l1.864,4.218l11.362-5.04c2.104-0.936,3.896-1.225,4.63,0.438
				c0.734,1.662-0.684,2.795-2.787,3.729l-11.362,5.04l1.876,4.244l11.73-5.201c4.13-1.835,6.646-4.967,4.63-9.529
				C113.161,251.324,109.07,250.964,104.967,252.784z"/>
			<polygon fill="#004C98" points="109.426,241.558 97.431,244.712 97.409,244.625 108.282,236.999 107.081,232.216 87.33,237.211 
				88.3,241.071 100.468,237.903 100.49,237.987 89.444,245.631 90.68,250.553 110.43,245.558 			"/>
			<polygon fill="#004C98" points="106.024,223.229 85.803,225.677 86.352,230.286 106.574,227.84 			"/>
			<polygon fill="#004C98" points="105.492,210.274 85.039,205.349 85.12,210.367 100.071,213.038 100.071,213.095 85.212,215.931 
				85.297,221.149 105.588,216.127 			"/>
			<polygon fill="#004C98" points="107.372,192.057 103.3,191.475 102.49,197.214 98.131,196.59 98.834,191.623 95.074,191.085 
				94.373,196.053 90.414,195.487 91.175,190.09 87.159,189.516 85.781,199.281 105.945,202.166 			"/>
			<path fill="#004C98" d="M109.389,184.063l-7.784-2.284l0.379-1.3l8.551-0.345l1.366-4.678l-9.701,0.79
				c-0.07-1.404-1.235-3.367-4.134-4.218c-3.892-1.143-6.525,0.487-7.632,4.28l-1.833,6.281l19.543,5.734L109.389,184.063z
				 M98.865,179.563l-0.379,1.301l-4.942-1.45l0.405-1.384c0.298-1.024,1.104-2.14,3.091-1.556
				C98.806,176.992,99.228,178.318,98.865,179.563z"/>
			<path fill="#004C98" d="M112.223,160.06c-3.214-1.484-5.568,0.126-7.188,1.443c-1.445,1.143-2.302,1.7-3.452,1.17
				c-1.358-0.628-1.498-1.771-1.063-2.714c0.409-0.891,1.235-1.588,2.258-1.88l-2.083-3.596c-1.644,0.542-3.108,1.866-4.036,3.884
				c-1.241,2.698-0.875,6.518,3.228,8.411c3.082,1.423,5.106,0.325,7.026-1.233c1.52-1.235,2.519-1.822,3.718-1.268
				c1.177,0.543,1.521,1.653,1.052,2.677c-0.494,1.072-1.562,1.945-2.759,2.345l2.146,3.596c1.629-0.582,3.487-2.073,4.511-4.299
				C116.979,165.557,116.22,161.904,112.223,160.06z"/>
			<polygon fill="#004C98" points="101.991,149.231 119.474,159.708 121.853,155.726 104.37,145.248 			"/>
			<path fill="#004C98" d="M124.866,134.525c-4.94-3.872-9.681-4.257-13.282,0.351l-3.528,4.518l16.045,12.578l3.528-4.519
				C131.211,142.868,129.716,138.327,124.866,134.525z M124.491,144.92l-0.691,0.887l-9.698-7.604l0.69-0.886
				c1.365-1.748,4-1.659,7.218,0.863C125.115,140.615,125.857,143.172,124.491,144.92z"/>
			<path fill="#004C98" d="M127.827,117.362l-4.23,3.949l10.259,18.323l3.369-3.145l-1.918-3.293l3.346-3.125l3.14,2.153
				l3.518-3.283L127.827,117.362z M133.252,130.227l-4.638-7.531l0.084-0.078l7.102,5.231L133.252,130.227z"/>
			<path fill="#004C98" d="M152.31,124.087c4.831-3.235,4.827-8.021,1.412-13.154c-3.48-5.229-7.859-7.082-12.715-3.83l-4.759,3.188
				l11.302,16.985L152.31,124.087z M143.29,110.43c1.842-1.233,4.314-0.323,6.581,3.084c2.188,3.285,2.093,5.95,0.252,7.184
				l-0.932,0.623l-6.833-10.267L143.29,110.43z"/>
			<polygon fill="#004C98" points="171.842,113.398 170.089,109.668 164.861,112.141 162.985,108.15 167.511,106.007 
				165.893,102.563 161.367,104.704 159.663,101.079 164.58,98.752 162.851,95.073 153.955,99.282 162.634,117.755 			"/>
			<polygon fill="#004C98" points="187.531,95.989 182.824,97.206 181.788,93.188 186.911,91.86 185.867,87.813 176.259,90.299 
				181.358,110.063 185.871,108.896 183.84,101.023 188.518,99.814 			"/>
			<polygon fill="#004C98" points="198.01,102.372 197.448,97.995 202.413,97.36 201.927,93.585 196.963,94.22 196.453,90.244 
				201.845,89.556 201.327,85.521 191.57,86.771 194.171,107.02 204.27,105.729 203.745,101.638 			"/>
			<path fill="#004C98" d="M214.199,85.161l-5.723-0.122l-0.438,20.411l5.724,0.123c5.809,0.126,8.539-3.797,8.672-9.966
				C222.568,89.323,220.036,85.287,214.199,85.161z M213.905,101.54l-1.121-0.025l0.264-12.339l1.122,0.024
				c2.215,0.047,3.722,2.213,3.635,6.309C217.72,99.458,216.12,101.588,213.905,101.54z"/>
			<polygon fill="#004C98" points="236.58,103.96 230.882,102.986 231.622,98.638 236.556,99.48 237.194,95.729 232.262,94.888 
				232.936,90.936 238.293,91.85 238.977,87.843 229.28,86.188 225.852,106.31 235.887,108.023 			"/>
			<path fill="#004C98" d="M246.241,102.507l1.287,0.418l0.111,8.58l4.626,1.495l-0.523-9.744c1.4-0.032,3.392-1.146,4.318-4.028
				c1.244-3.869-0.312-6.553-4.061-7.767l-6.215-2.008l-6.249,19.431l4.215,1.363L246.241,102.507z M248.819,94.494l1.368,0.443
				c1.013,0.327,2.104,1.164,1.468,3.139c-0.565,1.757-1.897,2.145-3.13,1.747l-1.287-0.416L248.819,94.494z"/>
			<path fill="#004C98" d="M258.341,115.901l2.438-2.927l4.068,2.097l-0.952,3.69l4.271,2.203l4.925-20.417l-5.143-2.649
				l-13.701,15.893L258.341,115.901z M268.355,103.101l0.103,0.054l-2.495,8.472l-3.097-1.595L268.355,103.101z"/>
			<polygon fill="#004C98" points="278.631,128.427 281.08,124.937 276.635,121.797 285.902,108.593 282.091,105.901 
				270.374,122.599 			"/>
			<path fill="#004C98" d="M304.619,124.838l-3.914-4.19l-14.87,13.951l3.914,4.189c3.975,4.253,8.683,3.471,13.176-0.745
				C307.504,133.748,308.612,129.112,304.619,124.838z M299.758,134.653c-2.877,2.699-5.515,3.039-7.028,1.418l-0.768-0.821
				l8.988-8.432l0.77,0.819C303.233,129.26,302.741,131.854,299.758,134.653z"/>
			<polygon fill="#004C98" points="310.026,150.87 313.15,148.706 310.303,144.58 313.593,142.301 316.687,146.782 320.023,144.47 
				314.425,136.362 297.667,147.969 303.462,156.362 306.847,154.018 303.557,149.252 307.179,146.744 			"/>
			<path fill="#004C98" d="M316.971,166.444l0.782,1.83c1.191,2.783,4.244,4.795,8.421,3.001c4.468-1.919,4.553-5.596,3.405-8.273
				l-2.496-5.829l-18.714,8.044l1.78,4.159L316.971,166.444z M325.297,162.867l0.578,1.352c0.5,1.166,0.185,2.4-1.481,3.116
				c-1.611,0.692-2.907,0.15-3.407-1.016l-0.578-1.351L325.297,162.867z"/>
			<polygon fill="#004C98" points="316.886,189.539 320.852,188.442 319.315,182.854 323.56,181.679 324.888,186.517 
				328.549,185.503 327.22,180.665 331.074,179.599 332.519,184.854 336.43,183.771 333.815,174.263 314.182,179.696 			"/>
			<polygon fill="#004C98" points="318.991,203.226 323.204,202.619 322.436,197.223 338.376,194.922 337.719,190.296 
				317.564,193.204 			"/>
			<path fill="#004C98" d="M329.609,205.396c-6.474-0.029-10.839,2.95-10.918,7.792c-0.079,4.843,4.188,7.86,10.662,7.891
				c6.444,0.029,10.724-2.95,10.803-7.793C340.236,208.385,336.055,205.425,329.609,205.396z M329.431,216.353
				c-3.54-0.018-6.257-1.068-6.223-3.145c0.034-2.104,2.784-3.101,6.323-3.085c3.54,0.016,6.199,1.039,6.165,3.144
				C335.662,215.342,332.97,216.366,329.431,216.353z"/>
			<polygon fill="#004C98" points="334.676,228.819 318.403,226.366 317.737,230.845 334.01,233.296 333.458,237.006 
				337.327,237.587 339.096,225.694 335.228,225.11 			"/>
			<path fill="#004C98" d="M316.062,238.937l3.341,1.819l-1.251,4.41l-3.797-0.213l-1.314,4.633l20.936,0.841l1.582-5.576
				l-18.236-10.354L316.062,238.937z M322.691,242.233l7.855,4.037l-0.031,0.113l-8.775-0.795L322.691,242.233z"/>
			<path fill="#004C98" d="M325.086,258.14c-3.089-1.41-5.107-0.308-7.021,1.26c-1.513,1.242-2.509,1.832-3.714,1.283
				c-1.179-0.539-1.526-1.65-1.062-2.673c0.489-1.075,1.552-1.952,2.747-2.356l-2.162-3.588c-1.627,0.588-3.478,2.088-4.492,4.317
				c-1.384,3.043-0.608,6.694,3.396,8.523c3.219,1.471,5.567-0.148,7.181-1.474c1.439-1.146,2.295-1.707,3.446-1.181
				c1.361,0.621,1.505,1.765,1.075,2.709c-0.406,0.892-1.229,1.593-2.25,1.89l2.099,3.588c1.642-0.549,3.101-1.881,4.02-3.899
				C329.576,263.836,329.194,260.021,325.086,258.14z"/>
			<path fill="#004C98" d="M297.046,286.213c-0.924,1.067-0.731,2.606,0.354,3.554c1.063,0.926,2.656,0.935,3.579-0.135
				c0.94-1.088,0.688-2.645-0.376-3.57C299.517,285.115,297.987,285.124,297.046,286.213z"/>
			<path fill="#004C98" d="M163.069,314.669c1.985-3.545,0.994-6.485-2.441-8.422l-5.689-3.208l-9.967,17.805l3.859,2.176l3.97-7.09
				l1.18,0.662l-1.589,8.436l4.234,2.387l1.416-9.655C159.421,318.006,161.592,317.31,163.069,314.669z M158.982,312.663
				c-0.901,1.609-2.284,1.725-3.412,1.088l-1.179-0.664l2.52-4.501l1.254,0.705C159.093,309.814,159.996,310.854,158.982,312.663z"
				/>
			<path fill="#004C98" d="M175.261,312.418c-2.769-1.06-6.546-0.436-8.156,3.792c-1.21,3.18,0.018,5.132,1.697,6.947
				c1.331,1.436,1.981,2.394,1.511,3.633c-0.462,1.213-1.545,1.631-2.593,1.229c-1.103-0.421-2.042-1.43-2.521-2.599l-3.435,2.388
				c0.688,1.593,2.296,3.349,4.58,4.224c3.116,1.191,6.702,0.188,8.271-3.935c1.262-3.313-0.5-5.561-1.917-7.091
				c-1.234-1.368-1.846-2.188-1.394-3.373c0.533-1.402,1.662-1.617,2.63-1.248c0.914,0.352,1.663,1.13,2.021,2.132l3.441-2.325
				C178.746,314.585,177.33,313.211,175.261,312.418z"/>
			
				<rect x="179.293" y="326.475" transform="matrix(0.967 0.2548 -0.2548 0.967 89.6277 -35.5541)" fill="#004C98" width="5.523" height="3.43"/>
			<path fill="#004C98" d="M197.536,318.628l-6.039-0.851l-2.854,20.216l6.692,0.941c2.876,0.405,6.187-0.614,6.794-4.926
				c0.4-2.826-1.034-4.602-2.517-5.217l0.008-0.058c1.489-0.463,2.797-1.704,3.132-4.073
				C203.371,320.294,200.042,318.98,197.536,318.628z M197.862,332.972c-0.226,1.601-1.392,2.251-2.731,2.063l-1.708-0.24
				l0.693-4.911l1.652,0.232C196.937,330.278,198.116,331.173,197.862,332.972z M198.633,324.839
				c-0.226,1.601-1.367,2.079-2.479,1.923l-1.565-0.222l0.617-4.367l1.538,0.216C197.91,322.555,198.855,323.27,198.633,324.839z"/>
			<path fill="#004C98" d="M220.75,325.678c-0.055-4.063-2.384-6.103-6.321-6.037l-6.528,0.106l0.274,20.411l4.43-0.073
				l-0.109-8.129l1.352-0.023l2.843,8.086l4.858-0.078l-3.603-9.055C219.262,330.403,220.791,328.706,220.75,325.678z
				 M213.802,328.676l-1.353,0.021l-0.07-5.159l1.438-0.024c1.063-0.017,2.363,0.425,2.393,2.499
				C216.236,327.856,215.096,328.654,213.802,328.676z"/>
			<path fill="#004C98" d="M228.19,318.534l-1.317,20.961l4.534-0.801l0.174-3.809l4.505-0.795l1.471,3.518l4.73-0.837
				l-8.401-19.242L228.19,318.534z M231.468,331.276l0.188-8.847l0.113-0.021l3.127,8.261L231.468,331.276z"/>
			<path fill="#004C98" d="M250.547,321.559c-1.819-0.266-2.812-0.51-3.217-1.712c-0.478-1.421,0.257-2.308,1.237-2.64
				c0.928-0.313,2.002-0.189,2.913,0.354l1.179-3.989c-1.521-0.824-3.487-0.981-5.586-0.274c-2.809,0.95-5.329,3.841-3.887,8.13
				c1.084,3.227,3.27,3.948,5.718,4.278c1.938,0.258,3.05,0.582,3.472,1.84c0.413,1.23-0.154,2.243-1.219,2.604
				c-1.119,0.378-2.483,0.196-3.595-0.399l-1.134,4.035c1.538,0.789,3.896,1.119,6.215,0.336c3.162-1.069,5.289-4.13,3.885-8.313
				C255.398,322.446,252.612,321.837,250.547,321.559z"/>
			<polygon fill="#004C98" points="255.014,310.799 263.554,329.341 267.757,327.394 259.217,308.853 			"/>
			<polygon fill="#004C98" points="275.229,318.486 267.036,304.587 263.025,306.968 273.384,324.541 282.074,319.381 
				279.908,315.708 			"/>
		</g>
		<g>
			<path fill="#FFFFFF" d="M279.962,208.624c-1.357,0-2.691-0.098-3.999-0.28c8.576-6.403,15.862-17.209,15.862-26.812
				c0-1.832-0.132-3.612-0.375-5.338c-2.127-15.108-13.259-25.758-28.098-25.804v-0.002c-0.017,0-0.032,0-0.048,0
				c-0.017,0-0.032,0-0.049,0v0.002c-14.839,0.046-25.971,10.695-28.099,25.804c-0.242,1.726-0.374,3.506-0.374,5.338
				c0,9.603,7.286,20.408,15.862,26.812c-1.309,0.183-2.642,0.28-3.999,0.28c-3.694,0-7.225-0.697-10.475-1.954h-0.502v6.796h24.913
				v-0.06c0.041,0.011,0.082,0.024,0.123,0.034c-6.014-3.99-13.12-13.347-14.539-15.871c-2.578-4.586-4.104-10.267-4.104-16.419
				c0-15.225,9.34-27.566,20.861-27.566c0.057,0,0.218,0,0.379,0c0.16,0,0.321,0,0.378,0c11.521,0,20.861,12.342,20.861,27.566
				c0,6.152-1.525,11.833-4.104,16.419c-1.42,2.524-8.525,11.88-14.539,15.871c0.041-0.01,0.082-0.023,0.123-0.034v0.06h24.913
				v-6.796h-0.502C287.185,207.927,283.656,208.624,279.962,208.624z"/>
			<path fill="#FFFFFF" d="M180.472,199.692l-17.912-51.945l-17.909,51.934c-2.491,5.719-6.681,10.527-11.958,13.75h5.497h1.719
				h10.193h0.428h5.235l-4.521-6.022l2.266-8.297h18.098l2.263,8.297l-4.541,6.022h5.688h1.082h9.109h3.143h4.073
				C187.152,210.21,182.964,205.407,180.472,199.692z M154.95,193.072l7.612-31.964l7.608,31.964H154.95z"/>
		</g>
		<path fill="#F6D200" d="M216.533,185.726c-0.029,0.077-0.058,0.152-0.082,0.213c-0.007-0.046-0.01-0.094-0.016-0.14l0,0
			c-0.154-1.063-0.239-2.147-0.239-3.253c0-1.578,0.579-5.127,0.579-5.127c0.231-1.299,0.374-2.63,0.374-3.995
			c0-4.27-1.209-8.246-3.265-11.653c-0.275,5.578-2.955,10.805-5.788,13.845c-0.548-0.795-1.051-1.622-1.495-2.485
			c-0.698,1.66-1.201,3.42-1.488,5.253c-0.002,0.003-0.004,0.006-0.008,0.008c-0.008,0.059-0.013,0.117-0.021,0.175
			c-0.02,0.129-0.048,0.255-0.063,0.386h0.017c-0.131,0.96-0.227,1.933-0.227,2.93c0,2.565,0.446,5.022,1.233,7.324h11.944
			c1.146-2.047,1.967-4.293,2.435-6.668c0.076-0.494,0.146-0.951,0.206-1.381C219.556,182.924,218.167,184.472,216.533,185.726z"/>
		<path fill="#A2D5ED" d="M174.016,175.252l2.624,7.607l21.687-1.136c0-0.014-0.001-0.027-0.001-0.04
			c0-1.146,0.076-2.286,0.197-3.423L174.016,175.252z"/>
		<path fill="#A2D5ED" d="M167.531,127.081l34.047,40.576c0.75-1.54,1.621-3.02,2.604-4.42l-21.645-42.479
			C177.328,122.449,172.312,124.57,167.531,127.081z"/>
		<path fill="#A2D5ED" d="M243.93,181.151c0,0.499,0.021,0.994,0.043,1.489l38.52,2.019c0.115-1.154,0.188-2.323,0.188-3.508
			c0-3.412-0.498-6.667-1.395-9.647l-36.979,4.541C244.061,177.695,243.93,179.403,243.93,181.151z"/>
		<path fill="#A2D5ED" d="M293.689,181.532c0,1.232-0.111,2.468-0.311,3.697l11.868,0.622c-1.655-5.736-3.828-11.252-6.465-16.496
			l-6.762,0.83c0.563,1.831,0.994,3.749,1.274,5.749C293.558,177.79,293.689,179.672,293.689,181.532z"/>
		<path fill="#A2D5ED" d="M232.94,182.063c-0.004-0.177-0.021-0.354-0.021-0.53c0-1.368,0.097-2.746,0.237-4.118l-7.114,0.874
			c0.119,1.128,0.188,2.262,0.188,3.396c0,0.009-0.001,0.018-0.001,0.027L232.94,182.063z"/>
		<path fill="#A2D5ED" d="M242.218,120.752l-21.396,41.99c0.131,0.556,0.253,1.115,0.354,1.68l0.031,0.044l0.07,0.43
			c0.247,1.516,0.367,3.04,0.397,4.547l35.555-42.371C252.447,124.561,247.429,122.441,242.218,120.752z"/>
		<polygon fill="#A2D5ED" points="163.711,173.987 161.478,173.712 159.079,183.779 165.957,183.419 		"/>
		<path fill="#A2D5ED" d="M186.219,205.55l10.719-9.996v-1.441v-2.701l-13.744,9.623
			C184.057,202.646,185.079,204.148,186.219,205.55z"/>
		<path fill="#A2D5ED" d="M260.585,215.331h-11.536l13.625,12.705h6.268h1.959l-0.097,1.957c-0.086,1.742-0.261,3.464-0.495,5.16
			l26.457,24.673c2.725-4.862,5.038-9.985,6.897-15.322l-41.662-29.173H260.585z"/>
		<path fill="#A2D5ED" d="M239.573,199.626l-11.727-8.211v2.697v1.446l10.649,9.932c2.382,0.752,4.839,1.185,7.344,1.257
			C243.6,204.66,241.455,202.247,239.573,199.626z"/>
		<path fill="#A2D5ED" d="M169.331,215.295h-3.741l2.251-2.986l0.834-1.107l-47.559,33.303c1.859,5.335,4.175,10.46,6.898,15.322
			l26.456-24.672c-0.235-1.697-0.408-3.416-0.495-5.161l-0.098-1.957h1.959h6.269l13.663-12.741h-0.751L169.331,215.295
			L169.331,215.295z"/>
		<path fill="#A2D5ED" d="M152.035,172.554l-26.038-3.198c-2.635,5.244-4.81,10.76-6.465,16.496l28.431-1.489L152.035,172.554z"/>
		<g>
			<rect x="198.803" y="190.036" fill="#FFFFFF" width="27.18" height="4.076"/>
			<rect x="201.823" y="195.627" fill="#FFFFFF" width="21.139" height="3.474"/>
			<polygon fill="#FFFFFF" points="214.636,291.224 212.365,288.593 210.096,291.224 210.125,295.287 214.655,295.287 			"/>
			<rect x="211.184" y="304.435" fill="#FFFFFF" width="2.418" height="1.135"/>
			<rect x="207.862" y="296.812" fill="#FFFFFF" width="9.061" height="2.643"/>
			<polygon fill="#FFFFFF" points="210.128,301.946 211.193,302.927 213.592,302.927 214.657,301.946 214.657,300.964 
				210.128,300.964 			"/>
			<path fill="#FFFFFF" d="M208.044,228.036h8.697c0.673-9.201,1.944-18.626,3.793-27.423H204.25
				C206.098,209.41,207.37,218.835,208.044,228.036z"/>
		</g>
		<g>
			<path fill="#B2D235" d="M267.953,279.655c-3.166,4.238-8.206,6.992-13.902,6.992c-5.684,0-10.714-2.742-13.882-6.963
				c-3.166,4.239-8.206,6.994-13.901,6.994c-5.696,0-10.737-2.755-13.903-6.994c-3.169,4.221-8.198,6.963-13.881,6.963
				c-5.697,0-10.737-2.754-13.904-6.994c-3.167,4.222-8.196,6.965-13.88,6.965c-5.696,0-10.737-2.756-13.903-6.993
				c-1.999,2.662-4.737,4.733-7.914,5.901c1.738,1.519,3.532,2.974,5.378,4.365c0.937-0.813,1.79-1.724,2.536-2.718
				c3.166,4.238,8.207,6.994,13.903,6.994c5.684,0,10.713-2.743,13.881-6.963c3.166,4.235,8.206,6.993,13.903,6.993
				c5.683,0,10.712-2.742,13.88-6.963c3.166,4.238,8.208,6.994,13.904,6.994c5.695,0,10.735-2.756,13.901-6.994
				c3.168,4.221,8.198,6.963,13.882,6.963c5.695,0,10.736-2.756,13.902-6.993c0.746,0.991,1.597,1.899,2.533,2.713
				c1.846-1.39,3.64-2.847,5.379-4.362C272.69,284.39,269.951,282.317,267.953,279.655z"/>
			<path fill="#B2D235" d="M267.953,264.558c-3.166,4.237-8.206,6.992-13.902,6.992c-5.684,0-10.714-2.742-13.882-6.962
				c-3.166,4.237-8.206,6.993-13.901,6.993c-5.696,0-10.737-2.756-13.903-6.993c-3.169,4.22-8.198,6.962-13.881,6.962
				c-5.697,0-10.737-2.756-13.904-6.992c-3.167,4.219-8.196,6.963-13.88,6.963c-5.696,0-10.737-2.756-13.903-6.994
				c-3.168,4.221-8.197,6.964-13.881,6.964c-3.375,0-6.516-0.978-9.18-2.646c2.557,3.573,5.351,6.965,8.358,10.152
				c0.273,0.014,0.545,0.042,0.821,0.042c5.684,0,10.713-2.743,13.881-6.963c3.166,4.235,8.207,6.991,13.903,6.991
				c5.684,0,10.713-2.741,13.88-6.963c3.167,4.238,8.207,6.994,13.904,6.994c5.683,0,10.712-2.742,13.881-6.963
				c3.166,4.238,8.207,6.993,13.903,6.993c5.695,0,10.735-2.755,13.901-6.993c3.168,4.221,8.198,6.963,13.882,6.963
				c5.696,0,10.736-2.756,13.902-6.992c3.168,4.22,8.197,6.961,13.88,6.961c0.279,0,0.551-0.026,0.826-0.041
				c3.013-3.19,5.813-6.584,8.371-10.162c-2.668,1.675-5.813,2.654-9.197,2.654C276.15,271.521,271.121,268.776,267.953,264.558z"/>
		</g>
		<path fill="#FAA61A" d="M174.565,269.157c3.364-0.864,6.357-2.838,8.522-5.721l1.494-1.99l1.49,1.992
			c2.965,3.971,7.489,6.246,12.41,6.246c4.908,0,9.424-2.266,12.389-6.218l1.495-1.989l1.49,1.992
			c2.966,3.971,7.489,6.246,12.41,6.246s9.442-2.275,12.407-6.246l1.49-1.992l1.495,1.989c2.164,2.884,5.157,4.855,8.521,5.72
			c10.892-9.773,17.981-23.694,18.759-39.287H155.838C156.615,245.478,163.693,259.386,174.565,269.157z"/>
	</g>
	<rect x="56.693" y="56.693" fill="none" width="311.811" height="311.811"/>
	<rect x="0" fill="none" width="425.197" height="425.197"/>
</g>
</svg>
