<?xml version="1.0" standalone="no"?>
<!DOCTYPE svg PUBLIC "-//W3C//DTD SVG 20010904//EN"
 "http://www.w3.org/TR/2001/REC-SVG-20010904/DTD/svg10.dtd">
<svg version="1.0" xmlns="http://www.w3.org/2000/svg"
 width="575.000000pt" height="579.000000pt" viewBox="0 0 575.000000 579.000000"
 preserveAspectRatio="xMidYMid meet">

<g transform="translate(0.000000,579.000000) scale(0.100000,-0.100000)"
fill="#000000" stroke="none">
<path d="M2147 5256 c-59 -22 -113 -62 -145 -108 -40 -60 -52 -100 -52 -178 0
-55 6 -78 31 -128 49 -99 128 -152 240 -160 97 -7 159 17 229 87 118 118 121
283 8 407 -78 85 -205 117 -311 80z"/>
<path d="M2636 5218 c-13 -19 -16 -60 -16 -243 0 -183 3 -224 16 -243 15 -22
19 -22 254 -22 204 0 241 2 254 16 24 23 24 475 0 498 -13 14 -50 16 -254 16
-235 0 -239 0 -254 -22z"/>
<path d="M3287 5222 c-15 -16 -17 -49 -17 -249 0 -210 2 -231 18 -246 16 -15
49 -17 255 -17 201 0 238 2 251 16 24 23 24 475 0 498 -13 14 -50 16 -253 16
-218 0 -239 -2 -254 -18z"/>
<path d="M1985 4566 c-14 -21 -16 -58 -13 -249 2 -172 6 -228 17 -240 12 -15
42 -17 252 -17 203 0 240 2 253 16 14 13 16 50 16 253 0 171 -3 240 -12 249
-9 9 -79 12 -255 12 l-243 0 -15 -24z"/>
<path d="M2636 4568 c-13 -19 -16 -60 -16 -243 0 -183 3 -224 16 -243 15 -22
19 -22 253 -22 218 0 239 2 254 18 15 16 17 48 17 246 0 138 -4 235 -10 247
-10 18 -24 19 -255 19 -241 0 -244 0 -259 -22z"/>
<path d="M1995 3925 l-26 -25 3 -229 c2 -175 6 -232 17 -244 12 -15 42 -17
252 -17 203 0 240 2 253 16 14 13 16 50 16 253 0 210 -2 240 -17 252 -12 11
-69 15 -244 17 l-229 3 -25 -26z"/>
<path d="M2653 3938 c-12 -5 -24 -20 -27 -32 -3 -11 -6 -118 -6 -236 0 -179 3
-219 16 -238 15 -22 19 -22 253 -22 218 0 239 2 254 18 15 16 17 49 17 248 0
183 -3 234 -14 250 -13 18 -30 19 -243 21 -146 1 -236 -2 -250 -9z"/>
<path d="M3310 3943 c-37 -14 -40 -32 -40 -263 0 -188 3 -229 16 -248 15 -22
19 -22 253 -22 218 0 239 2 254 18 15 16 17 49 17 248 0 183 -3 234 -14 250
-13 18 -29 19 -243 21 -125 1 -235 -1 -243 -4z"/>
<path d="M1995 3275 l-26 -25 3 -229 c2 -175 6 -232 17 -244 12 -15 42 -17
251 -17 217 0 238 2 253 18 15 16 17 49 17 254 0 207 -2 237 -17 249 -12 11
-69 15 -244 17 l-229 3 -25 -26z"/>
<path d="M2657 3293 c-31 -8 -37 -49 -37 -271 0 -181 3 -221 16 -240 15 -22
19 -22 253 -22 218 0 239 2 254 18 15 16 17 49 17 248 0 183 -3 234 -14 250
-13 18 -29 19 -243 21 -125 0 -236 -1 -246 -4z"/>
<path d="M937 2374 c-4 -4 -7 -126 -7 -271 l0 -263 60 0 60 0 -2 268 -3 267
-50 3 c-28 2 -54 0 -58 -4z"/>
<path d="M1187 2373 c-4 -3 -7 -125 -7 -270 l0 -263 50 0 50 0 2 201 3 201
115 -200 115 -201 73 -1 72 0 0 270 0 270 -50 0 -51 0 3 -199 c2 -110 0 -197
-3 -195 -4 2 -58 92 -120 199 l-114 195 -66 0 c-36 0 -69 -3 -72 -7z"/>
<path d="M1850 2362 c-46 -23 -80 -75 -80 -123 0 -78 34 -120 135 -171 75 -38
95 -55 95 -83 0 -56 -85 -72 -182 -35 -29 11 -54 20 -55 20 -2 0 -3 -23 -3
-51 0 -48 1 -51 38 -66 55 -24 177 -23 227 2 54 27 85 76 85 135 0 68 -29 106
-121 154 -95 51 -109 63 -109 91 0 52 67 69 150 40 24 -8 44 -14 45 -13 1 2 9
22 18 45 l16 41 -46 16 c-63 22 -168 21 -213 -2z"/>
<path d="M2160 2330 l0 -50 75 0 75 0 0 -220 0 -220 55 0 55 0 0 220 0 219 73
3 72 3 0 45 0 45 -202 3 -203 2 0 -50z"/>
<path d="M2650 2110 l0 -270 55 0 55 0 0 270 0 270 -55 0 -55 0 0 -270z"/>
<path d="M2850 2330 l0 -50 75 0 75 0 0 -220 0 -220 55 0 55 0 0 220 0 220 70
0 70 0 0 50 0 50 -200 0 -200 0 0 -50z"/>
<path d="M3340 2173 c0 -197 2 -210 23 -247 33 -59 100 -91 192 -90 95 1 155
29 190 88 24 42 25 47 25 250 l0 207 -52 -3 -53 -3 -6 -200 c-3 -110 -6 -201
-7 -202 -32 -35 -50 -43 -93 -43 -100 0 -103 7 -109 250 l-5 195 -52 3 -53 3
0 -208z"/>
<path d="M3860 2330 l0 -50 70 0 70 0 0 -220 0 -220 55 0 55 0 0 220 0 220 75
0 75 0 0 50 0 50 -200 0 -200 0 0 -50z"/>
<path d="M4472 2369 c-48 -14 -118 -88 -134 -141 -17 -59 -15 -204 4 -249 42
-97 124 -145 244 -143 160 2 244 96 244 273 0 181 -85 272 -249 270 -42 0 -91
-5 -109 -10z m189 -105 c35 -31 51 -82 51 -160 -1 -80 -16 -120 -59 -154 -24
-18 -38 -21 -87 -18 -49 4 -63 9 -82 31 -32 38 -47 101 -41 173 5 68 26 112
66 138 35 22 122 17 152 -10z"/>
<path d="M1310 1465 l0 -265 55 0 55 0 0 105 0 105 90 0 90 0 0 45 0 45 -90 0
-90 0 0 70 0 70 100 0 100 0 0 45 0 45 -155 0 -155 0 0 -265z"/>
<path d="M1720 1465 l0 -265 155 0 155 0 0 45 0 45 -95 0 -95 0 0 70 0 70 90
0 90 0 0 45 0 45 -90 0 -90 0 0 60 0 60 95 0 95 0 0 45 0 45 -155 0 -155 0 0
-265z"/>
<path d="M2150 1465 l0 -265 113 0 c128 0 174 10 233 51 66 45 89 103 89 219
0 86 -3 100 -28 142 -53 90 -122 118 -294 118 l-113 0 0 -265z m245 161 c63
-27 95 -116 75 -212 -17 -81 -75 -124 -166 -124 l-44 0 0 175 0 175 50 0 c28
0 66 -6 85 -14z"/>
<path d="M2700 1465 l0 -265 155 0 155 0 0 45 0 45 -95 0 -95 0 0 70 0 70 90
0 90 0 0 45 0 45 -90 0 -90 0 0 60 0 60 95 0 95 0 0 45 0 45 -155 0 -155 0 0
-265z"/>
<path d="M3130 1465 l0 -265 55 0 55 0 0 100 0 100 33 0 c31 0 36 -6 91 -96
32 -53 64 -98 71 -100 7 -3 36 -4 64 -2 l51 3 -73 109 -73 110 42 40 c50 48
63 96 45 158 -25 83 -84 108 -255 108 l-106 0 0 -265z m237 152 c22 -22 21
-74 -3 -97 -13 -13 -36 -21 -69 -22 l-50 -3 -3 74 -3 74 56 -5 c33 -3 63 -11
72 -21z"/>
<path d="M3718 1653 c-14 -43 -55 -163 -92 -266 l-65 -188 61 3 62 3 16 55 16
55 100 3 101 3 18 -61 18 -60 59 0 c32 0 58 3 58 7 0 3 -37 110 -81 237 -45
127 -86 243 -91 259 -10 26 -12 27 -82 27 l-72 0 -26 -77z m137 -126 l32 -102
-65 -3 c-35 -2 -66 -1 -68 1 -2 2 11 51 28 110 18 58 34 104 37 101 3 -3 19
-51 36 -107z"/>
<path d="M4150 1465 l0 -265 165 0 165 0 0 45 0 45 -110 0 -110 0 0 220 0 220
-55 0 -55 0 0 -265z"/>
<path d="M1230 755 c0 -208 1 -215 20 -215 19 0 20 7 20 215 0 208 -1 215 -20
215 -19 0 -20 -7 -20 -215z"/>
<path d="M3880 890 l0 -80 -37 20 c-113 61 -209 -30 -187 -177 5 -35 16 -57
40 -80 27 -28 39 -33 82 -33 35 0 57 6 76 21 l26 20 0 -20 c0 -14 6 -21 20
-21 19 0 20 7 20 215 0 208 -1 215 -20 215 -18 0 -20 -7 -20 -80z m-32 -105
c27 -34 36 -93 22 -144 -19 -70 -83 -93 -136 -48 -45 39 -47 154 -4 197 30 30
93 27 118 -5z"/>
<path d="M1791 946 c-15 -18 -3 -46 19 -46 10 0 21 7 24 16 6 16 -9 44 -24 44
-4 0 -13 -6 -19 -14z"/>
<path d="M603 935 c-38 -20 -58 -63 -49 -108 8 -43 31 -64 119 -107 68 -33 72
-37 75 -72 2 -28 -2 -40 -20 -52 -25 -18 -112 -22 -152 -6 -23 9 -26 7 -26
-14 0 -30 16 -36 99 -36 85 0 131 26 145 82 16 65 -5 94 -103 142 -83 40 -86
42 -89 78 -4 50 28 73 96 65 26 -2 54 -8 63 -11 11 -5 18 -1 22 13 7 28 -4 33
-82 38 -48 3 -75 -1 -98 -12z"/>
<path d="M1655 840 c-12 -4 -27 -15 -34 -24 -18 -22 -31 -20 -31 4 0 11 -7 20
-15 20 -13 0 -15 -23 -15 -150 0 -143 1 -150 20 -150 19 0 20 7 20 98 0 122
16 156 82 169 28 6 44 14 46 26 3 13 -3 17 -25 16 -15 0 -37 -4 -48 -9z"/>
<path d="M1993 835 c-54 -23 -75 -68 -71 -153 3 -71 5 -75 41 -108 32 -29 44
-34 88 -34 95 0 139 50 139 157 0 71 -25 118 -75 139 -43 17 -80 17 -122 -1z
m126 -49 c31 -33 39 -119 14 -166 -21 -41 -70 -59 -116 -41 -59 23 -76 154
-27 206 32 34 97 35 129 1z"/>
<path d="M2504 841 c-54 -23 -73 -116 -34 -159 20 -21 20 -23 4 -47 -13 -19
-14 -31 -7 -48 8 -18 5 -26 -19 -48 -81 -76 22 -159 158 -129 68 15 94 42 94
97 0 57 -29 76 -122 81 -47 3 -71 9 -75 18 -9 23 17 44 54 44 41 0 89 23 103
49 13 26 13 84 -1 98 -7 7 -1 12 20 16 41 9 39 27 -3 27 -18 0 -60 2 -92 5
-32 3 -69 1 -80 -4z m105 -47 c26 -34 27 -68 1 -94 -43 -43 -120 -11 -120 50
0 65 79 94 119 44z m11 -250 c35 -8 45 -23 36 -57 -7 -30 -45 -47 -102 -47
-72 0 -106 29 -83 71 18 35 76 47 149 33z"/>
<path d="M2865 838 c-11 -6 -28 -20 -37 -32 l-18 -21 0 28 c0 20 -5 27 -20 27
-19 0 -20 -7 -20 -150 0 -143 1 -150 20 -150 18 0 20 7 20 85 0 126 33 185
102 185 21 0 28 5 28 20 0 15 -7 20 -27 20 -16 0 -37 -6 -48 -12z"/>
<path d="M3052 839 c-24 -7 -32 -15 -30 -27 3 -9 11 -15 19 -13 81 25 139 4
139 -51 0 -26 -2 -28 -42 -28 -60 0 -114 -17 -138 -42 -28 -31 -26 -83 5 -113
32 -33 110 -35 149 -4 l27 21 6 -21 c3 -11 12 -21 19 -21 11 0 14 25 14 124 0
68 -3 132 -6 141 -15 38 -90 54 -162 34z m128 -180 c0 -39 -48 -89 -85 -89
-45 0 -65 17 -65 56 0 30 5 37 33 49 17 8 51 14 75 15 40 0 42 -1 42 -31z"/>
<path d="M3414 841 c-12 -5 -25 -14 -29 -20 -9 -16 -25 -13 -25 4 0 8 -9 15
-20 15 -19 0 -20 -7 -20 -150 0 -140 1 -150 19 -150 17 0 19 11 23 110 4 98 7
113 28 135 18 19 34 25 66 25 65 0 74 -20 74 -157 0 -106 1 -113 20 -113 19 0
20 7 20 124 0 116 -2 127 -23 151 -25 30 -94 43 -133 26z"/>
<path d="M4085 841 c-100 -44 -110 -237 -15 -286 33 -17 132 -20 161 -5 10 6
19 17 19 26 0 12 -7 13 -37 7 -72 -15 -104 -9 -135 25 -15 18 -28 43 -28 57
l0 25 105 0 105 0 0 25 c0 35 -23 86 -48 109 -24 21 -96 30 -127 17z m105 -51
c11 -11 20 -31 20 -45 0 -25 -1 -25 -80 -25 -49 0 -80 4 -80 10 0 18 29 68 42
73 31 13 79 6 98 -13z"/>
<path d="M4434 841 c-12 -5 -25 -14 -29 -20 -9 -16 -25 -13 -25 4 0 8 -9 15
-20 15 -19 0 -20 -7 -20 -150 0 -140 1 -150 19 -150 17 0 19 11 23 110 4 98 7
113 28 135 18 19 34 25 66 25 65 0 74 -20 74 -157 0 -106 1 -113 20 -113 19 0
20 7 20 124 0 116 -2 127 -23 151 -25 30 -94 43 -133 26z"/>
<path d="M4713 835 c-35 -15 -49 -48 -39 -90 5 -20 25 -34 84 -63 57 -27 78
-43 80 -59 7 -46 -75 -66 -151 -37 -13 4 -17 1 -17 -14 0 -26 18 -32 96 -32
56 0 68 4 89 25 30 29 34 84 8 107 -10 9 -48 30 -85 46 -50 23 -68 36 -68 50
0 35 25 45 95 39 54 -5 65 -4 65 9 0 33 -98 45 -157 19z"/>
<path d="M5025 841 c-100 -44 -110 -237 -15 -286 33 -17 132 -20 161 -5 10 6
19 17 19 26 0 12 -7 13 -37 7 -72 -15 -104 -9 -135 25 -15 18 -28 43 -28 57
l0 25 105 0 105 0 0 25 c0 35 -23 86 -48 109 -24 21 -96 30 -127 17z m105 -51
c11 -11 20 -31 20 -45 0 -25 -1 -25 -80 -25 -49 0 -80 4 -80 10 0 18 29 68 42
73 31 13 79 6 98 -13z"/>
<path d="M872 714 c4 -123 5 -127 32 -150 36 -32 115 -33 157 -3 l29 20 0 -20
c0 -14 6 -21 20 -21 19 0 20 7 20 150 l0 150 -25 0 -25 0 0 -109 c0 -128 -10
-149 -76 -158 -34 -4 -46 -1 -63 16 -19 19 -21 32 -21 136 l0 115 -26 0 -26 0
4 -126z"/>
<path d="M1790 690 c0 -143 1 -150 20 -150 19 0 20 7 20 150 0 143 -1 150 -20
150 -19 0 -20 -7 -20 -150z"/>
<path d="M1350 690 c0 -18 7 -20 65 -20 58 0 65 2 65 20 0 18 -7 20 -65 20
-58 0 -65 -2 -65 -20z"/>
<path d="M2250 690 c0 -18 7 -20 65 -20 58 0 65 2 65 20 0 18 -7 20 -65 20
-58 0 -65 -2 -65 -20z"/>
</g>
</svg>
